<svg width="1440" height="256" viewBox="0 0 1440 256" fill="none" xmlns="http://www.w3.org/2000/svg">
<rect width="1440" height="225" fill="#0021C9"/>
<path d="M264.619 -24.8796L235.763 -22.1931L166.956 120.538L215.79 115.992L248.131 53.5914" stroke="white" stroke-opacity="0.51" stroke-width="3"/>
<path d="M237.671 -22.3707L266.527 -25.0572L360.499 102.519L311.666 107.065L268.362 51.708" stroke="white" stroke-opacity="0.51" stroke-width="3"/>
<path d="M52.7727 73.7983L58.0679 130.676L-13.9867 137.384C-17.2586 122.731 -17.0205 88.8164 10.1065 70.3863" stroke="white" stroke-opacity="0.51" stroke-width="3"/>
<path d="M50.7804 52.399L45.4851 -4.47817L-26.5696 2.23013C-27.0802 17.2356 -20.5856 50.5229 9.47734 63.6286" stroke="white" stroke-opacity="0.51" stroke-width="3"/>
<path d="M52.962 74.3487L95.6506 127.177L158.06 121.366L105.989 69.4119" stroke="white" stroke-opacity="0.51" stroke-width="3"/>
<path d="M50.8649 51.8231L83.6351 -8.02993L145.477 -13.7875L103.891 46.8863" stroke="white" stroke-opacity="0.51" stroke-width="3"/>
<path d="M1147.81 -28.8814L1176.72 -26.196L1245.67 116.473L1196.74 111.929L1164.33 49.5556" stroke="white" stroke-opacity="0.51" stroke-width="3"/>
<path d="M1174.81 -26.3736L1145.9 -29.0589L1051.75 98.4621L1100.67 103.006L1144.06 47.673" stroke="white" stroke-opacity="0.51" stroke-width="3"/>
<path d="M1360.07 69.7537L1354.77 126.606L1426.96 133.312C1430.24 118.665 1430 84.7653 1402.82 66.3432" stroke="white" stroke-opacity="0.51" stroke-width="3"/>
<path d="M1362.07 48.3637L1367.37 -8.4888L1439.57 -1.7834C1440.08 13.2155 1433.57 46.4884 1403.45 59.5884" stroke="white" stroke-opacity="0.51" stroke-width="3"/>
<path d="M1359.88 70.3039L1317.11 123.109L1254.58 117.301L1306.75 65.3692" stroke="white" stroke-opacity="0.51" stroke-width="3"/>
<path d="M1361.98 47.7881L1329.15 -12.039L1267.19 -17.794L1308.85 42.8534" stroke="white" stroke-opacity="0.51" stroke-width="3"/>
<path d="M211.392 123.913L190.475 125.856L140.598 229.074L175.997 225.787L199.44 180.661" stroke="white" stroke-opacity="0.51" stroke-width="3"/>
<path d="M191.858 125.727L212.776 123.785L280.895 216.044L245.496 219.332L214.105 179.299" stroke="white" stroke-opacity="0.51" stroke-width="3"/>
<path d="M57.8266 195.274L61.6651 236.406L9.43323 241.257C7.06152 230.66 7.23411 206.134 26.8982 192.806" stroke="white" stroke-opacity="0.51" stroke-width="3"/>
<path d="M56.3824 179.798L52.5439 138.667L0.312016 143.518C-0.0581013 154.369 4.64976 178.442 26.4422 187.919" stroke="white" stroke-opacity="0.51" stroke-width="3"/>
<path d="M57.9639 195.672L88.9085 233.875L134.149 229.673L96.4025 192.102" stroke="white" stroke-opacity="0.51" stroke-width="3"/>
<path d="M56.4437 179.382L80.1986 136.098L125.028 131.934L94.8823 175.812" stroke="white" stroke-opacity="0.51" stroke-width="3"/>
<path d="M1198.55 119.915L1219.47 121.858L1269.34 225.076L1233.94 221.788L1210.5 176.663" stroke="white" stroke-opacity="0.51" stroke-width="3"/>
<path d="M1218.08 121.729L1197.17 119.786L1129.05 212.045L1164.45 215.333L1195.84 175.3" stroke="white" stroke-opacity="0.51" stroke-width="3"/>
<path d="M1352.11 191.275L1348.28 232.407L1400.51 237.258C1402.88 226.662 1402.71 202.136 1383.04 188.808" stroke="white" stroke-opacity="0.51" stroke-width="3"/>
<path d="M1353.56 175.8L1357.4 134.668L1409.63 139.52C1410 150.371 1405.29 174.443 1383.5 183.921" stroke="white" stroke-opacity="0.51" stroke-width="3"/>
<path d="M1351.98 191.674L1321.03 229.877L1275.79 225.675L1313.54 188.103" stroke="white" stroke-opacity="0.51" stroke-width="3"/>
<path d="M1353.5 175.384L1329.74 132.1L1284.91 127.936L1315.06 171.814" stroke="white" stroke-opacity="0.51" stroke-width="3"/>
<path d="M578.106 -19.025L557.188 -17.0822L507.311 86.1364L542.71 82.8486L566.154 37.7228" stroke="white" stroke-opacity="0.51" stroke-width="3"/>
<path d="M558.571 -17.2107L579.489 -19.1535L647.609 73.1057L612.21 76.3936L580.819 36.3607" stroke="white" stroke-opacity="0.51" stroke-width="3"/>
<path d="M424.54 52.3358L428.378 93.4676L376.147 98.3188C373.775 87.722 373.947 63.1964 393.612 49.8683" stroke="white" stroke-opacity="0.51" stroke-width="3"/>
<path d="M423.096 36.8605L419.257 -4.27133L367.025 0.579907C366.655 11.4314 371.363 35.5037 393.155 44.9814" stroke="white" stroke-opacity="0.51" stroke-width="3"/>
<path d="M424.677 52.7338L455.622 90.9373L500.862 86.7354L463.116 49.1637" stroke="white" stroke-opacity="0.51" stroke-width="3"/>
<path d="M423.157 36.444L446.912 -6.83989L491.741 -11.0036L461.596 32.8738" stroke="white" stroke-opacity="0.51" stroke-width="3"/>
<path d="M831.836 -23.0233L852.753 -21.0805L902.631 82.1381L867.232 78.8503L843.788 33.7245" stroke="white" stroke-opacity="0.51" stroke-width="3"/>
<path d="M851.37 -21.209L830.452 -23.1518L762.333 69.1074L797.732 72.3953L829.123 32.3624" stroke="white" stroke-opacity="0.51" stroke-width="3"/>
<path d="M985.402 48.3375L981.563 89.4693L1033.79 94.3205C1036.17 83.7237 1035.99 59.1981 1016.33 45.87" stroke="white" stroke-opacity="0.51" stroke-width="3"/>
<path d="M986.846 32.8622L990.684 -8.26962L1042.92 -3.41838C1043.29 7.43308 1038.58 31.5054 1016.79 40.9831" stroke="white" stroke-opacity="0.51" stroke-width="3"/>
<path d="M985.264 48.7355L954.32 86.939L909.079 82.7371L946.826 45.1654" stroke="white" stroke-opacity="0.51" stroke-width="3"/>
<path d="M986.784 32.4457L963.03 -10.8382L918.201 -15.0018L948.346 28.8755" stroke="white" stroke-opacity="0.51" stroke-width="3"/>
<path d="M576.174 93.7507L547.615 96.4032L479.517 237.328L527.848 232.839L559.856 171.229" stroke="white" stroke-opacity="0.51" stroke-width="3"/>
<path d="M549.504 96.2278L578.062 93.5753L671.066 219.537L622.736 224.026L579.878 169.369" stroke="white" stroke-opacity="0.51" stroke-width="3"/>
<path d="M366.51 191.18L371.751 247.337L300.439 253.96C297.2 239.493 297.436 206.008 324.284 187.811" stroke="white" stroke-opacity="0.51" stroke-width="3"/>
<path d="M364.538 170.051L359.298 113.894L287.985 120.517C287.48 135.333 293.908 168.199 323.661 181.139" stroke="white" stroke-opacity="0.51" stroke-width="3"/>
<path d="M366.698 191.723L408.946 243.882L470.713 238.146L419.178 186.849" stroke="white" stroke-opacity="0.51" stroke-width="3"/>
<path d="M364.622 169.483L397.055 110.387L458.26 104.702L417.102 164.608" stroke="white" stroke-opacity="0.51" stroke-width="3"/>
<path d="M833.768 89.7524L862.326 92.405L930.424 233.33L882.094 228.841L850.086 167.23" stroke="white" stroke-opacity="0.51" stroke-width="3"/>
<path d="M860.438 92.2295L831.879 89.577L738.875 215.539L787.206 220.028L830.064 165.371" stroke="white" stroke-opacity="0.51" stroke-width="3"/>
<path d="M1043.43 187.181L1038.19 243.339L1109.5 249.962C1112.74 235.494 1112.51 202.009 1085.66 183.813" stroke="white" stroke-opacity="0.51" stroke-width="3"/>
<path d="M1045.4 166.053L1050.64 109.896L1121.96 116.519C1122.46 131.335 1116.03 164.201 1086.28 177.14" stroke="white" stroke-opacity="0.51" stroke-width="3"/>
<path d="M1043.24 187.725L1001 239.884L939.229 234.147L990.764 182.851" stroke="white" stroke-opacity="0.51" stroke-width="3"/>
<path d="M1045.32 165.484L1012.89 106.389L951.682 100.704L992.839 160.61" stroke="white" stroke-opacity="0.51" stroke-width="3"/>
<rect x="-3.00586" y="-0.0142822" width="1442.81" height="225.902" fill="url(#paint0_radial)"/>
<defs>
<radialGradient id="paint0_radial" cx="0" cy="0" r="1" gradientUnits="userSpaceOnUse" gradientTransform="translate(718.397 112.937) rotate(90) scale(112.951 721.403)">
<stop stop-color="#0021C9"/>
<stop offset="1" stop-color="#0021C9" stop-opacity="0.86"/>
</radialGradient>
</defs>
</svg>
