<svg width="105" height="72" viewBox="0 0 105 72" fill="none" xmlns="http://www.w3.org/2000/svg">
<path d="M34.345 41.1119L34.3784 67.2057L2.27102 67.2467C1.41962 60.4444 2.89995 45.0274 15.6325 37.7772" stroke="url(#paint0_linear)" stroke-width="3"/>
<path d="M34.3325 31.2944L34.2992 5.20061L2.1918 5.24164C1.35778 12.046 2.8775 27.4593 15.6286 34.6769" stroke="url(#paint1_linear)" stroke-width="3"/>
<path d="M34.4064 41.3702L51.1251 67.1843L78.9346 67.1488L58.0349 41.34" stroke="url(#paint2_linear)" stroke-width="3"/>
<path d="M34.3932 31.0359L51.2987 5.17887L78.8554 5.14366L58.0217 31.0058" stroke="url(#paint3_linear)" stroke-width="3"/>
<path d="M103.246 4.42039L52.3521 67.2251L80.2352 67.2251L97.8314 45.0269" stroke="url(#paint4_linear)" stroke-width="3"/>
<defs>
<linearGradient id="paint0_linear" x1="18.2288" y1="67.2263" x2="18.1912" y2="37.7739" gradientUnits="userSpaceOnUse">
<stop stop-color="white"/>
<stop offset="1" stop-color="white"/>
</linearGradient>
<linearGradient id="paint1_linear" x1="18.1496" y1="5.22125" x2="18.1872" y2="34.6737" gradientUnits="userSpaceOnUse">
<stop stop-color="white"/>
<stop offset="1" stop-color="white"/>
</linearGradient>
<linearGradient id="paint2_linear" x1="56.654" y1="41.3418" x2="56.687" y2="67.1772" gradientUnits="userSpaceOnUse">
<stop stop-color="white" stop-opacity="0"/>
<stop offset="1" stop-color="white"/>
</linearGradient>
<linearGradient id="paint3_linear" x1="56.6408" y1="31.0075" x2="56.6078" y2="5.17208" gradientUnits="userSpaceOnUse">
<stop stop-color="white" stop-opacity="0"/>
<stop offset="1" stop-color="white"/>
</linearGradient>
<linearGradient id="paint4_linear" x1="81.2935" y1="2.22768" x2="74.5794" y2="69.4453" gradientUnits="userSpaceOnUse">
<stop stop-color="white" stop-opacity="0"/>
<stop offset="1" stop-color="white"/>
</linearGradient>
</defs>
</svg>
