<svg width="117" height="72" viewBox="0 0 117 72" fill="none" xmlns="http://www.w3.org/2000/svg">
<path d="M37.345 41.1119L37.3784 67.2057L5.27102 67.2467C4.41962 60.4444 5.89995 45.0274 18.6325 37.7772" stroke="url(#paint0_linear)" stroke-width="7"/>
<path d="M37.3325 31.2944L37.2992 5.20061L5.1918 5.24164C4.35778 12.046 5.8775 27.4593 18.6286 34.6769" stroke="url(#paint1_linear)" stroke-width="7"/>
<path d="M37.4064 41.3702L54.1251 67.1843L81.9346 67.1488L61.0349 41.34" stroke="url(#paint2_linear)" stroke-width="7"/>
<path d="M37.3932 31.0359L54.2987 5.17887L81.8554 5.14366L61.0217 31.0058" stroke="url(#paint3_linear)" stroke-width="7"/>
<path d="M110.894 4.38542L60 67.1902L87.8831 67.1902L105.479 44.9919" stroke="url(#paint4_linear)" stroke-width="7"/>
<defs>
<linearGradient id="paint0_linear" x1="21.2288" y1="67.2263" x2="21.1912" y2="37.7739" gradientUnits="userSpaceOnUse">
<stop stop-color="white"/>
<stop offset="1" stop-color="white"/>
</linearGradient>
<linearGradient id="paint1_linear" x1="21.1496" y1="5.22125" x2="21.1872" y2="34.6737" gradientUnits="userSpaceOnUse">
<stop stop-color="white"/>
<stop offset="1" stop-color="white"/>
</linearGradient>
<linearGradient id="paint2_linear" x1="59.654" y1="41.3418" x2="59.687" y2="67.1772" gradientUnits="userSpaceOnUse">
<stop stop-color="white" stop-opacity="0"/>
<stop offset="1" stop-color="white"/>
</linearGradient>
<linearGradient id="paint3_linear" x1="59.6408" y1="31.0075" x2="59.6078" y2="5.17208" gradientUnits="userSpaceOnUse">
<stop stop-color="white" stop-opacity="0"/>
<stop offset="1" stop-color="white"/>
</linearGradient>
<linearGradient id="paint4_linear" x1="88.9414" y1="2.19271" x2="82.2273" y2="69.4104" gradientUnits="userSpaceOnUse">
<stop stop-color="white" stop-opacity="0"/>
<stop offset="1" stop-color="white"/>
</linearGradient>
</defs>
</svg>
