<svg width="375" height="300" viewBox="0 0 375 300" fill="none" xmlns="http://www.w3.org/2000/svg">
<path d="M59.835 136.635C61.4362 138.907 62.2087 143.497 62.8087 146.179" stroke="#442257" stroke-width="1.5" stroke-linecap="round" stroke-linejoin="round"/>
<path d="M72.0786 135.116C70.3686 140.149 68.5799 142.766 68.2236 146.55" stroke="#442257" stroke-width="1.5" stroke-linecap="round" stroke-linejoin="round"/>
<path d="M69.0936 131.756C67.1698 137.22 67.1473 140.944 66.5173 146.482" stroke="#442257" stroke-width="1.5" stroke-linecap="round" stroke-linejoin="round"/>
<path d="M63.8025 135C63.9375 136.226 64.305 141.51 64.8075 146.786" stroke="#442257" stroke-width="1.5" stroke-linecap="round" stroke-linejoin="round"/>
<path d="M62.5087 145.267C62.2125 142.777 57.465 140.081 55.1325 140.434C53.0887 140.741 52.4812 142.211 53.5425 143.539C55.125 145.5 60.375 146.032 62.5087 145.267Z" stroke="#442257" stroke-width="1.5" stroke-linecap="round" stroke-linejoin="round"/>
<path d="M69.1462 143.295C70.4887 142.5 77.085 137.426 77.1562 141.937C77.2012 144.937 70.8975 143.97 69.2812 143.899" stroke="#442257" stroke-width="1.5" stroke-linecap="round" stroke-linejoin="round"/>
<path d="M205.192 90.5099V181.387" stroke="#442257" stroke-width="1.5" stroke-linecap="round" stroke-linejoin="round"/>
<path d="M185.625 127.657C185.726 132.022 184.796 136.354 184.552 140.719C184.245 146.16 184.091 152.415 185.302 157.744C186.457 162.765 188.989 167.284 190.305 172.215C190.869 174.579 190.596 177.065 189.532 179.25" stroke="#442257" stroke-width="1.5" stroke-linecap="round" stroke-linejoin="round"/>
<path d="M135.982 158.029C137.662 155.768 139.212 153.415 140.625 150.979C142.537 150.337 145.466 150.022 147.461 150.454C151.459 151.316 154.02 154.252 156.026 157.616C157.725 160.459 159.191 162.866 160.95 166.132C158.962 166.706 155.269 168.262 155.269 168.262" stroke="#442257" stroke-width="1.5" stroke-linecap="round" stroke-linejoin="round"/>
<path d="M150.375 159.056C152.183 160.305 154.346 166.781 155.678 169.027C156.589 170.569 158.696 174.75 158.696 174.75" stroke="#442257" stroke-width="1.5" stroke-linecap="round" stroke-linejoin="round"/>
<path d="M160.466 166.282C163.031 170.246 166.946 175.942 171.386 178.005" stroke="#442257" stroke-width="1.5" stroke-linecap="round" stroke-linejoin="round"/>
<path d="M171.866 178.189C170.636 173.94 163.991 153.84 162.375 148.845C160.219 142.211 157.612 134.486 154.912 128.051C153.517 124.732 152.224 123.33 148.669 122.985C142.339 122.366 105.69 123.709 99.7424 123.664C95.0024 123.63 83.1262 124.89 80.4412 125.827" stroke="#442257" stroke-width="1.5" stroke-linecap="round" stroke-linejoin="round"/>
<path d="M134.482 186.525C139.535 187.498 144.634 188.214 149.76 188.67C155.805 189.217 161.602 190.894 167.629 191.145C173.572 191.442 179.473 192.3 185.254 193.71C188.299 194.437 193.065 195.712 195.067 198.33L195.472 198.806H272.137C272.137 198.806 283.624 198.405 293.816 198.094L293.636 197.932C292.136 196.642 290.674 194.115 289.837 191.872C288.581 188.497 288.427 186.997 286.534 183.96C284.52 180.724 281.94 177.611 277.736 176.835C273.139 175.999 270.004 179.595 265.759 179.542C262.151 179.497 259.699 176.265 255.855 176.79C250.451 177.54 246.532 180.397 240.892 180.821C234.491 181.297 227.584 181.226 221.186 181.024C217.369 180.904 213.87 180.555 210.075 181.024C207.45 181.346 203.827 181.639 201.184 181.024C198.54 180.409 195.96 180.769 193.372 180.124C191.784 179.701 190.132 179.574 188.497 179.749C185.381 180.172 182.692 179.396 179.437 179.235C177.753 179.205 176.07 179.343 174.412 179.647C171.896 177.791 169.879 177.484 167.497 177.307C167.122 177.281 166.747 177.274 166.372 177.281C162.949 174.829 156.382 174.281 151.252 175.065C146.869 175.744 142.961 176.565 139.117 178.92C136.241 180.647 133.691 182.868 131.584 185.479C132.51 185.93 133.481 186.281 134.482 186.525Z" fill="#ABDDDF"/>
<path d="M194.25 107.445C193.676 107.415 192.99 107.546 192.146 107.569C191.296 107.581 190.446 107.542 189.6 107.452C189.727 109.957 189.832 112.702 189.832 112.702C189.832 112.702 184.024 112.807 181.417 112.747C181.395 112.432 181.312 109.98 181.241 107.692C179.921 107.926 178.58 108.019 177.24 107.97C177.266 108.6 177.285 109.136 177.274 109.515C177.191 113.31 177.034 117.105 177.214 120.904C177.24 121.51 177.467 122.091 177.859 122.554C178.252 123.017 178.787 123.336 179.381 123.461C182.137 124.012 185.415 123.716 188.216 123.75C189.39 123.75 192.229 124.402 193.177 123.461C194.52 122.122 193.995 116.336 194.164 114.484C194.356 112.142 194.385 109.79 194.25 107.445Z" fill="#F15D4A" stroke="#F15D4A" stroke-width="1.5" stroke-linecap="round" stroke-linejoin="round"/>
<path d="M116.347 192.105C116.897 193.284 117.69 194.333 118.674 195.183C119.659 196.033 120.812 196.664 122.059 197.036C124.702 197.917 133.166 198.806 143.156 198.806" stroke="#442257" stroke-width="1.5" stroke-linecap="round" stroke-linejoin="round"/>
<path d="M126.844 180.289C126.712 183.806 132.87 186.206 134.482 186.525C139.535 187.498 144.634 188.214 149.76 188.67C155.805 189.217 161.602 190.894 167.629 191.145C173.571 191.442 179.473 192.3 185.254 193.71C188.299 194.437 193.065 195.712 195.067 198.33" stroke="#442257" stroke-width="1.5" stroke-linecap="round" stroke-linejoin="round"/>
<path d="M115.822 182.625C117.071 182.302 118.35 181.939 119.524 181.699C121.309 181.324 127.755 179.535 127.755 179.535C126.772 177.345 125.692 169.886 125.407 167.666" stroke="#442257" stroke-width="1.5" stroke-linecap="round" stroke-linejoin="round"/>
<path d="M137.884 159.506C136.174 158.422 132.446 156.39 130.586 155.287C127.916 153.701 124.718 151.912 124.718 151.912C120.045 152.426 112.909 154.095 111.319 158.569C109.913 162.532 110.048 167.01 110.423 171.319" stroke="#442257" stroke-width="1.5" stroke-linecap="round" stroke-linejoin="round"/>
<path d="M139.571 187.357C140.411 185.317 143.456 182.857 145.478 182.081" stroke="#442257" stroke-width="1.5" stroke-linecap="round" stroke-linejoin="round"/>
<path d="M146.321 187.781C148.301 184.084 152.273 181.031 155.813 179.205C158.775 177.682 162.484 176.516 166.005 176.561" stroke="#442257" stroke-width="1.5" stroke-linecap="round" stroke-linejoin="round"/>
<path d="M164.539 183.75C167.325 181.852 170.242 179.437 173.576 178.912" stroke="#442257" stroke-width="1.5" stroke-linecap="round" stroke-linejoin="round"/>
<path d="M112.466 156.54C112.466 149.662 108.667 142.515 103.717 137.812C108.09 141.656 106.286 149.231 108.705 153.292" stroke="#442257" stroke-width="1.5" stroke-linecap="round" stroke-linejoin="round"/>
<path d="M113.625 142.837C115.5 143.104 116.715 144.799 117.424 146.422" stroke="#442257" stroke-width="1.5" stroke-linecap="round" stroke-linejoin="round"/>
<path d="M116.336 134.494C118.02 134.962 119.077 136.282 120.255 137.494" stroke="#442257" stroke-width="1.5" stroke-linecap="round" stroke-linejoin="round"/>
<path d="M109.924 168.262C106.331 164.359 102.469 155.846 101.006 151.286C99.5661 146.809 99.7086 142.001 99.0524 137.411C98.8199 135.776 97.4699 133.459 98.2199 131.872C99.1386 129.93 101.816 131.047 103.747 131.014C107.092 130.001 116.317 129.112 118.294 129.195" stroke="#442257" stroke-width="1.5" stroke-linecap="round" stroke-linejoin="round"/>
<path d="M132.728 128.505C134.91 128.014 139.991 127.706 142.043 128.464C142.504 127.942 143.771 127.466 144.435 128.062C145.459 128.989 144.124 129.262 144.255 130.012C144.649 132.225 146.434 134.479 147.709 137.512C148.984 140.546 150.15 146.43 150.544 151.29" stroke="#442257" stroke-width="1.5" stroke-linecap="round" stroke-linejoin="round"/>
<path d="M76.0425 143.58C77.5837 148.046 79.1437 152.636 79.7625 154.657C81.09 159 84.5212 170.445 84.5212 170.445" stroke="#442257" stroke-width="1.5" stroke-linecap="round" stroke-linejoin="round"/>
<path d="M73.0088 134.842C73.4813 136.2 74.1338 138.094 74.8838 140.194" stroke="#442257" stroke-width="1.5" stroke-linecap="round" stroke-linejoin="round"/>
<path d="M88.6536 127.245C88.6273 129.536 90.4611 134.141 91.0686 136.297C91.8899 139.192 95.4598 149.745 97.0161 155.287C98.2761 159.769 100.98 166.44 102.577 170.824" stroke="#442257" stroke-width="1.5" stroke-linecap="round" stroke-linejoin="round"/>
<path d="M79.0273 126.555C79.0273 126.555 83.6248 141.037 84.3748 143.659C85.6798 148.099 93.4723 170.527 93.4723 170.527" stroke="#442257" stroke-width="1.5" stroke-linecap="round" stroke-linejoin="round"/>
<path d="M184.2 90.4312C184.2 90.4312 183.24 93.7049 185.362 93.9824C186.139 94.0837 187.38 93.2587 188.302 93.2999C190.552 93.4012 192.052 93.4874 195.851 93.4162L214.125 93.0749C217.597 93.0074 221.021 92.6137 224.272 93.9262C228.259 95.5387 226.875 91.2149 226.875 91.2149" stroke="#442257" stroke-width="1.5" stroke-linecap="round" stroke-linejoin="round"/>
<path d="M207.844 90.2961C206.479 90.2961 202.541 90.4799 202.541 90.4799" stroke="#442257" stroke-width="1.5" stroke-linecap="round" stroke-linejoin="round"/>
<path d="M205.192 229.095V252.754" stroke="#442257" stroke-width="1.5" stroke-linecap="round" stroke-linejoin="round"/>
<path d="M193.924 100.5C193.928 100.239 193.88 99.98 193.784 99.7376C193.687 99.4952 193.544 99.2741 193.362 99.087C193.181 98.9 192.964 98.7506 192.724 98.6475C192.484 98.5444 192.227 98.4896 191.966 98.4862L183.427 98.3662C182.242 98.3662 178.882 97.9724 177.997 98.7412C176.52 100.046 177.311 107.34 177.247 109.519C177.165 113.314 177.007 117.109 177.187 120.907C177.213 121.514 177.441 122.094 177.833 122.557C178.225 123.02 178.761 123.34 179.355 123.465C182.111 124.016 185.389 123.72 188.19 123.754C189.364 123.754 192.202 124.406 193.151 123.465C194.494 122.126 193.969 116.34 194.137 114.487C194.486 110.659 194.224 106.92 193.942 103.117C193.909 102.446 193.909 101.419 193.924 100.5Z" stroke="#442257" stroke-width="1.5" stroke-linecap="round" stroke-linejoin="round"/>
<path d="M185.595 98.2236L185.805 92.8949" stroke="#442257" stroke-width="1.5" stroke-linecap="round" stroke-linejoin="round"/>
<path d="M181.103 103.605C181.103 103.605 181.358 112.155 181.406 112.766C184.013 112.826 189.821 112.721 189.821 112.721C189.821 112.721 189.491 104.096 189.296 103.511C186.435 103.459 181.103 103.605 181.103 103.605Z" stroke="#442257" stroke-width="1.5" stroke-linecap="round" stroke-linejoin="round"/>
<path d="M182.786 124.369C182.816 125.119 182.827 125.902 182.887 126.656C184.552 127.305 186.69 127.05 188.531 126.904C188.531 126.176 188.497 124.68 188.486 124.402" stroke="#442257" stroke-width="1.5" stroke-linecap="round" stroke-linejoin="round"/>
<path d="M272.917 187.8C274.196 189.589 274.597 192.3 275.366 194.344C275.819 195.669 276.502 196.904 277.384 197.992" stroke="#442257" stroke-width="1.5" stroke-linecap="round" stroke-linejoin="round"/>
<path d="M183.075 195.315C185.156 195.99 188.284 197.254 190.005 198.581" stroke="#442257" stroke-width="1.5" stroke-linecap="round" stroke-linejoin="round"/>
<path d="M124.717 151.909C124.471 150.513 124.132 149.135 123.705 147.784C123.476 147.067 123.259 146.351 123.041 145.631C121.762 146.805 119.355 145.796 119.55 143.944C119.685 142.672 120.855 142.125 122.01 142.136C121.687 141.079 121.35 140.021 120.971 138.982C120.191 136.834 119.362 134.644 118.676 132.472C118.301 131.261 118.095 129.682 118.732 128.565C120.064 126.244 124.192 125.096 126.709 125.22C127.991 125.284 129.109 125.287 130.226 126.022C132.232 127.342 133.226 130.125 134.077 132.285C134.827 134.254 138.405 145.166 138.405 145.166C139.26 147.697 140.149 151.102 140.149 151.102" stroke="#442257" stroke-width="1.5" stroke-linecap="round" stroke-linejoin="round"/>
<path d="M127.537 136.384L127.305 135.589" stroke="#442257" stroke-width="1.5" stroke-linecap="round" stroke-linejoin="round"/>
<path d="M131.816 134.955L131.584 134.16" stroke="#442257" stroke-width="1.5" stroke-linecap="round" stroke-linejoin="round"/>
<path d="M130.23 126.184C129.105 127.237 128.145 127.905 126.585 128.216C125.46 128.437 123.109 128.374 122.595 129.51C122.119 130.571 122.97 131.76 122.595 132.836C122.441 133.275 121.871 133.429 121.706 133.819C121.541 134.209 121.751 134.737 121.819 135.157C122.081 136.841 122.76 138.971 121.912 140.542" stroke="#442257" stroke-width="1.5" stroke-linecap="round" stroke-linejoin="round"/>
<path d="M43.3687 221.827C43.5712 213.952 43.7999 206.047 43.7999 198.142C43.7999 192.547 44.1112 179.392 44.2462 173.794C44.2629 173.112 44.548 172.464 45.0396 171.992C45.5311 171.519 46.1893 171.26 46.8712 171.27C49.6274 171.322 54.0187 171.39 57.1124 171.356C76.6124 171.131 94.3462 170.565 113.767 171.844C114.192 171.872 114.592 172.055 114.891 172.358C115.19 172.662 115.366 173.065 115.387 173.49C115.594 177.746 116.137 189.529 116.137 192.701C116.137 196.826 116.366 214.875 116.28 220.136C115.987 238.545 115.845 258.926 115.774 277.339" stroke="#442257" stroke-width="1.5" stroke-linecap="round" stroke-linejoin="round"/>
<path d="M74.1223 174.259C74.1223 185.051 73.9011 195.862 73.4061 206.625C73.0873 213.604 73.4061 238.777 73.4061 238.777" stroke="#442257" stroke-width="1.5" stroke-linecap="round" stroke-linejoin="round"/>
<path d="M73.0273 249.427V252.349" stroke="#442257" stroke-width="1.5" stroke-linecap="round" stroke-linejoin="round"/>
<path d="M79.2673 185.22C88.6423 185.46 102.262 184.74 110.839 185.002" stroke="#442257" stroke-width="1.5" stroke-linecap="round" stroke-linejoin="round"/>
<path d="M95.3398 189.679L96.0711 188.58" stroke="#442257" stroke-width="1.5" stroke-linecap="round" stroke-linejoin="round"/>
<path d="M79.2673 204.979C85.4023 205.136 91.3048 205.309 97.3723 205.155C100.26 205.08 110.839 205.08 110.839 205.08" stroke="#442257" stroke-width="1.5" stroke-linecap="round" stroke-linejoin="round"/>
<path d="M93.9636 210.322L95.2574 209.029" stroke="#442257" stroke-width="1.5" stroke-linecap="round" stroke-linejoin="round"/>
<path d="M79.2673 223.256C89.7673 223.256 100.335 223.631 110.839 223.631" stroke="#442257" stroke-width="1.5" stroke-linecap="round" stroke-linejoin="round"/>
<path d="M93.8811 229.657L95.3399 228.562" stroke="#442257" stroke-width="1.5" stroke-linecap="round" stroke-linejoin="round"/>
<path d="M116.321 214.354C118.159 214.275 134.404 214.729 144.071 214.729H248.171C263.377 214.729 273.795 214.616 288.945 214.069C295.016 213.847 301.159 213.694 307.23 213.634C313.924 213.559 327.247 213.66 327.247 213.66C327.247 213.66 328.286 223.755 326.167 225.776C322.069 229.691 316.417 228.184 304.519 228.184C292.62 228.184 280.811 228.42 266.539 228.611C249.487 228.84 232.462 228.829 215.31 228.806C207.495 228.806 199.56 228.975 191.685 228.975C184.222 228.975 146.31 229.35 134.73 229.35C129.652 229.35 116.149 229.372 116.149 229.372" stroke="#442257" stroke-width="1.5" stroke-linecap="round" stroke-linejoin="round"/>
<path d="M136.226 214.354C138.405 203.929 139.012 193.429 143.854 188.992C145.294 187.672 147.746 187.241 149.82 187.027C157.519 186.232 165.75 187.027 173.49 187.027H242.816C251.94 187.027 257.441 188.152 256.879 193.995C256.38 199.245 253.099 214.384 253.099 214.384" stroke="#442257" stroke-width="1.5" stroke-linecap="round" stroke-linejoin="round"/>
<path d="M153.701 214.354C155.325 207.874 157.579 192.529 159.96 187.335" stroke="#442257" stroke-width="1.5" stroke-linecap="round" stroke-linejoin="round"/>
<path d="M170.962 214.125C172.399 208.05 175.042 193.267 177.262 187.747" stroke="#442257" stroke-width="1.5" stroke-linecap="round" stroke-linejoin="round"/>
<path d="M188.269 214.08C189.739 207.896 191.947 193.387 193.807 187.699" stroke="#442257" stroke-width="1.5" stroke-linecap="round" stroke-linejoin="round"/>
<path d="M204.81 214.354C206.617 207.907 208.935 193.395 210.484 187.316" stroke="#442257" stroke-width="1.5" stroke-linecap="round" stroke-linejoin="round"/>
<path d="M221.49 214.384C222.99 208.639 224.542 193.031 226.2 187.316" stroke="#442257" stroke-width="1.5" stroke-linecap="round" stroke-linejoin="round"/>
<path d="M237.206 214.354C238.995 208.016 240.622 193.654 241.954 187.335" stroke="#442257" stroke-width="1.5" stroke-linecap="round" stroke-linejoin="round"/>
<path d="M323.284 213.259C323.284 209.854 324.229 201.454 321.51 199.496C319.14 197.79 314.01 197.741 308.306 197.741C302.602 197.741 272.137 198.806 272.137 198.806H116.865" stroke="#442257" stroke-width="1.5" stroke-linecap="round" stroke-linejoin="round"/>
<path d="M178.215 269.111C178.522 266.299 181.016 263.486 183.585 262.166C187.852 259.991 193.354 257.389 195.525 256.447C199.556 254.7 205.474 252.754 205.474 252.754C205.474 252.754 224.396 259.504 231.874 263.531C233.749 264.547 235.222 265.781 235.755 267.42" stroke="#442257" stroke-width="1.5" stroke-linecap="round" stroke-linejoin="round"/>
<path d="M205.474 252.75C205.474 252.75 200.021 257.197 196.342 261.397" stroke="#442257" stroke-width="1.5" stroke-linecap="round" stroke-linejoin="round"/>
<path d="M253.747 262.166V228.701" stroke="#442257" stroke-width="1.5" stroke-linecap="round" stroke-linejoin="round"/>
<path d="M259.777 228.637V260.779" stroke="#442257" stroke-width="1.5" stroke-linecap="round" stroke-linejoin="round"/>
<path d="M156.412 229.226V252.754" stroke="#442257" stroke-width="1.5" stroke-linecap="round" stroke-linejoin="round"/>
<path d="M150.386 261.42V229.271" stroke="#442257" stroke-width="1.5" stroke-linecap="round" stroke-linejoin="round"/>
<path d="M249.585 274.061C245.707 266.73 254.115 258.84 261.675 261.202C266.085 262.582 267.405 268.215 266.01 272.19" stroke="#442257" stroke-width="1.5" stroke-linecap="round" stroke-linejoin="round"/>
<path d="M258.848 271.875C255.326 274.736 251.85 267.225 256.511 266.344C259.358 265.789 261.034 270.082 258.848 271.875Z" stroke="#442257" stroke-width="1.5" stroke-linecap="round" stroke-linejoin="round"/>
<path d="M308.812 260.269V228.236" stroke="#442257" stroke-width="1.5" stroke-linecap="round" stroke-linejoin="round"/>
<path d="M314.842 228.431V249.427" stroke="#442257" stroke-width="1.5" stroke-linecap="round" stroke-linejoin="round"/>
<path d="M314.842 256.684V260.779" stroke="#442257" stroke-width="1.5" stroke-linecap="round" stroke-linejoin="round"/>
<path d="M305.974 263.032C308.422 259.834 312.765 259.496 316.099 261.427C318.067 262.575 319.939 264.259 320.426 266.91C320.49 267.285 320.542 267.63 320.572 267.982C321.382 276.754 311.572 281.002 305.947 275.569" stroke="#442257" stroke-width="1.5" stroke-linecap="round" stroke-linejoin="round"/>
<path d="M313.5 266.625C317.212 269.104 311.396 275.625 309.349 270.904C308.25 268.324 310.83 264.825 313.5 266.625Z" stroke="#442257" stroke-width="1.5" stroke-linecap="round" stroke-linejoin="round"/>
<path d="M277.807 217.642V227.509" stroke="#442257" stroke-width="1.5" stroke-linecap="round" stroke-linejoin="round"/>
<path d="M51.6487 116.152C51.5062 113.734 53.7637 108.682 55.4175 113.254C56.2837 109.084 64.3762 105.469 62.5425 112.016C63.6037 111 67.725 110.377 66.225 112.837C67.725 110.681 74.6475 105.652 74.2012 111.637C78.6075 108.517 83.1 118.185 78.675 117.262C82.9162 116.044 81.255 124.946 79.05 121.721C80.175 122.355 81.7275 125.242 80.0287 126.221C78.9037 126.866 76.7737 125.846 75.9525 125.096C76.7325 125.771 77.8537 126.532 78.1312 127.609C78.48 128.932 77.5762 131.302 75.975 130.534C77.1525 129.975 77.1 131.34 76.8562 132.319C76.4475 133.939 74.52 134.887 72.96 134.869C69.7237 134.835 67.9912 131.355 69.51 128.704C69.1912 129.9 68.4675 131.576 67.2975 132.184C65.7037 133.012 63.0375 131.989 64.0087 130.072C67.7587 133.155 61.695 136.384 61.1587 133.522C62.835 137.07 57.0037 137.272 55.185 135.622C54.0262 134.576 53.0362 132.27 55.1362 130.871C53.8162 131.891 51.9412 132.33 50.3062 131.396C49.2412 130.789 47.1862 128.715 49.0537 127.046C46.7737 126.765 44.7487 124.627 44.6325 122.336C44.55 120.705 45.0712 118.77 47.0587 119.066C45.9225 115.549 49.3837 113.7 51.6487 116.152Z" fill="#FAB550" stroke="#FAB550" stroke-width="1.5" stroke-linecap="round" stroke-linejoin="round"/>
<path d="M57.5437 127.282L57.5212 126.649" stroke="#442257" stroke-width="1.5" stroke-linecap="round" stroke-linejoin="round"/>
<path d="M55.9688 119.43L56.1562 118.785" stroke="#442257" stroke-width="1.5" stroke-linecap="round" stroke-linejoin="round"/>
<path d="M62.2798 121.834L62.4673 121.189" stroke="#442257" stroke-width="1.5" stroke-linecap="round" stroke-linejoin="round"/>
<path d="M70.3312 119.332L70.3162 118.909" stroke="#442257" stroke-width="1.5" stroke-linecap="round" stroke-linejoin="round"/>
<path d="M64.8411 115.882L65.0211 115.027" stroke="#442257" stroke-width="1.5" stroke-linecap="round" stroke-linejoin="round"/>
<path d="M76.1699 116.737L76.3574 116.096" stroke="#442257" stroke-width="1.5" stroke-linecap="round" stroke-linejoin="round"/>
<path d="M72.8098 125.471L72.9973 124.826" stroke="#442257" stroke-width="1.5" stroke-linecap="round" stroke-linejoin="round"/>
<path d="M73.6274 130.316L73.8149 129.675" stroke="#442257" stroke-width="1.5" stroke-linecap="round" stroke-linejoin="round"/>
<path d="M66.4873 126.555L66.6673 125.7" stroke="#442257" stroke-width="1.5" stroke-linecap="round" stroke-linejoin="round"/>
<path d="M60.7312 132.184L60.9112 131.329" stroke="#442257" stroke-width="1.5" stroke-linecap="round" stroke-linejoin="round"/>
<path d="M49.1061 119.632L49.0798 118.995" stroke="#442257" stroke-width="1.5" stroke-linecap="round" stroke-linejoin="round"/>
<path d="M59.3286 113.107L59.5161 112.462" stroke="#442257" stroke-width="1.5" stroke-linecap="round" stroke-linejoin="round"/>
<path d="M77.8762 123.142C77.8638 122.934 77.9323 122.728 78.0674 122.569" stroke="#442257" stroke-width="1.5" stroke-linecap="round" stroke-linejoin="round"/>
<path d="M51.6262 129.116V128.741" stroke="#442257" stroke-width="1.5" stroke-linecap="round" stroke-linejoin="round"/>
<path d="M71.1748 112.612V112.035" stroke="#442257" stroke-width="1.5" stroke-linecap="round" stroke-linejoin="round"/>
<path d="M53.7485 114.525V113.951" stroke="#442257" stroke-width="1.5" stroke-linecap="round" stroke-linejoin="round"/>
<path d="M51.5886 123.589C51.6777 123.781 51.6872 124.001 51.6149 124.2" stroke="#442257" stroke-width="1.5" stroke-linecap="round" stroke-linejoin="round"/>
<path d="M59.8911 147.24C60.2934 147.085 60.7125 146.978 61.1398 146.921C62.3098 146.719 63.6186 146.805 64.8073 146.786C66.7423 146.756 68.6173 146.411 70.5636 146.445C71.3698 148.984 71.9773 151.815 72.6186 154.432C73.4923 158.021 76.6198 170.595 70.6573 170.91C65.9061 171.161 57.4761 172.62 56.3736 167.659C55.0311 161.602 57.6523 155.197 58.8598 149.467C59.1411 148.125 59.1411 147.574 59.8911 147.24Z" stroke="#442257" stroke-width="1.5" stroke-linecap="round" stroke-linejoin="round"/>
<path d="M60.9861 162.274L64.6836 164.681" stroke="#442257" stroke-width="1.5" stroke-linecap="round" stroke-linejoin="round"/>
<path d="M63.2437 159.81L69.0899 162.982" stroke="#442257" stroke-width="1.5" stroke-linecap="round" stroke-linejoin="round"/>
<path d="M63.0674 155.936L65.2499 157.192" stroke="#442257" stroke-width="1.5" stroke-linecap="round" stroke-linejoin="round"/>
<path d="M129.037 139.77C130.687 140.325 132.097 140.201 133.039 138.645" stroke="#442257" stroke-width="1.5" stroke-linecap="round" stroke-linejoin="round"/>
</svg>
