<svg width="375" height="300" viewBox="0 0 375 300" fill="none" xmlns="http://www.w3.org/2000/svg">
<path d="M205.425 275.782H230.925C231.941 271.657 224.002 272.032 221.76 271.901C218.76 271.755 208.89 271.676 205.429 271.762" stroke="#442257" stroke-width="1.5" stroke-linecap="round" stroke-linejoin="round"/>
<path d="M225.191 268.62V271.054" stroke="#442257" stroke-width="1.5" stroke-linecap="round" stroke-linejoin="round"/>
<path d="M259.384 139.2C258.923 141.202 259.928 143.449 261.206 143.917C264.079 144.971 268.166 137.82 269.921 135.772C274.211 130.766 280.665 122.966 285.713 120.799C293.869 117.3 304.136 122.501 310.748 127.312C312.536 128.614 313.65 131.554 310.571 131.715C308.291 131.835 303.379 129.87 301.553 128.764C305.779 130.657 311.753 133.264 310.733 136.219C309.66 139.324 303.84 135.671 301.815 135.094C304.065 136.159 308.483 138.709 307.335 140.925C306.188 143.141 300.529 138.817 298.099 137.824C300.173 138.765 304.811 142.669 301.613 143.64C298.613 144.551 293.059 140.299 290.528 138.712C288.57 137.49 287.115 135.236 287.115 135.236" stroke="#442257" stroke-width="1.5" stroke-linecap="round" stroke-linejoin="round"/>
<path d="M245.096 148.564C246.713 156.367 247.125 163.564 258.113 163.234C268.811 162.904 274.661 153.109 280.77 146.006C282.356 144.154 287.336 138.656 288.645 137.152" stroke="#442257" stroke-width="1.5" stroke-linecap="round" stroke-linejoin="round"/>
<path d="M232.215 74.7525C234.416 74.865 238.62 74.415 238.853 77.7525C239.085 81.09 234.78 80.5575 232.519 80.6887L230.149 91.3575H232.283" stroke="#442257" stroke-width="1.5" stroke-linecap="round" stroke-linejoin="round"/>
<path d="M208.575 89.426C211.039 79.6498 213.109 69.3448 215.445 59.6773C216.001 57.6298 216.934 55.7043 218.198 53.9998" stroke="#442257" stroke-width="1.5" stroke-linecap="round" stroke-linejoin="round"/>
<path d="M199.226 177.877C199.259 176.677 199.289 175.477 199.316 174.277C199.451 168.652 199.785 157.702 197.123 154.912C196.223 153.971 194.891 153.379 193.313 153.011C193.485 153.657 193.574 154.323 193.579 154.991C193.511 158.741 190.44 158.209 187.174 158.497C184.721 158.715 180.964 159.499 178.586 158.58C178.258 158.453 177.945 158.289 177.653 158.092C176.561 163.552 175.579 170.37 175.028 176.092L174.806 177.967C179.933 177.926 186.203 177.896 189.345 177.825C191.921 177.769 196.785 177.836 199.226 177.877Z" fill="#ABDDDF" stroke="#ABDDDF" stroke-width="1.5" stroke-linecap="round" stroke-linejoin="round"/>
<path d="M225.188 186.457C226.121 186.405 227.333 186.364 228.604 186.33V186.285C228.604 180.379 228.334 176.16 228.604 170.25C228.773 166.571 229.493 158.006 231.011 154.841C230.16 153.581 225.825 153.124 221.468 152.992L221.539 153.322C222.255 159.671 206.805 164.1 205.414 159.097C205.32 160.669 205.414 162.311 205.414 163.669V186.829C210.975 186.656 221.216 186.671 225.188 186.457Z" fill="#ABDDDF" stroke="#ABDDDF" stroke-width="1.5" stroke-linecap="round" stroke-linejoin="round"/>
<path d="M228.611 190.564C221.992 190.613 212.37 190.714 205.425 190.905V267.78C210.12 267.825 223.466 268.069 228.094 267.263C228.844 253.478 228.679 234.57 228.679 231.24C228.679 226.226 228.63 201.079 228.611 190.564Z" fill="#ABDDDF" stroke="#ABDDDF" stroke-width="1.5" stroke-linecap="round" stroke-linejoin="round"/>
<path d="M199.058 267.637C198.998 262.496 198.863 257.37 198.806 252.232C198.683 241.042 198.735 214.984 198.735 203.786C198.735 196.597 198.923 189.39 199.11 182.201C195.394 182.179 185.344 182.122 176.546 182.1V182.212C177.174 184.627 177.799 187.182 178.421 189.877C180.488 198.956 183.015 213.412 184.594 226.069C186.173 238.725 187.185 250.226 187.339 257.569C187.339 257.569 185.224 258.409 182.771 259.249L182.801 259.515L183.716 266.37L186.488 267.787C191.183 267.832 199.031 267.645 199.031 267.645L199.058 267.637Z" fill="#ABDDDF" stroke="#ABDDDF" stroke-width="1.5" stroke-linecap="round" stroke-linejoin="round"/>
<path d="M259.5 128.887C259.219 125.257 258.75 120.727 258.263 117.139C257.644 112.549 256.845 108.172 255.311 103.74C251.621 93.0711 243.559 91.1886 233.936 90.9898H233.07C229.32 94.0498 225.9 96.3111 222.3 99.7311C221.123 100.856 219.926 101.895 218.723 102.926L218.209 102.251C217.59 101.284 207.566 88.3348 207.566 88.3348C203.829 88.2202 200.11 88.8988 196.654 90.3261C193.088 91.95 189.683 93.9061 186.484 96.1686C182.639 98.9938 178.981 102.065 175.534 105.364C175.534 105.364 175.054 105.082 176.014 106.114C178.894 109.189 180.221 114.169 180.656 118.215C180.866 120.172 181.031 122.137 181.121 124.106C181.181 125.464 181.204 126.821 181.211 128.179L181.556 127.965C182.79 127.166 187.365 124.965 189.266 124.177C187.208 127.41 185.55 132.015 185.55 132.015L185.471 132.427C186.596 132.506 187.721 132.604 188.449 132.716C190.568 133.039 192.664 133.316 195.135 134.501L194.475 135.15C194.475 135.15 204.765 138.067 209.85 139.849C214.024 141.311 219.525 142.95 221.558 146.974L221.659 147.154C224.019 147.154 226.361 147.154 228.686 147.154C231.443 147.154 233.471 147.671 234.971 148.609C234.971 148.609 238.676 141.109 240.99 136.339C241.539 140.753 242.463 145.112 243.75 149.37C247.654 145.916 259.5 139.515 259.875 138.367C260.25 137.22 259.785 132.787 259.5 128.887Z" fill="#ABDDDF" stroke="#ABDDDF" stroke-width="1.5" stroke-linecap="round" stroke-linejoin="round"/>
<path d="M198.829 275.782H171.495V271.762C174.956 271.676 192.334 271.762 195.326 271.901C196.076 271.939 197.393 271.927 198.829 272.036" stroke="#442257" stroke-width="1.5" stroke-linecap="round" stroke-linejoin="round"/>
<path d="M222.758 68.4786L222.919 66.7949" stroke="#442257" stroke-width="1.5" stroke-linecap="round" stroke-linejoin="round"/>
<path d="M217.331 74.28C219.285 75.7237 222.63 75.6637 224.081 72.6712" stroke="#442257" stroke-width="1.5" stroke-linecap="round" stroke-linejoin="round"/>
<path d="M231.881 73.9537C228.593 68.9437 232.556 60.0787 228.99 56.3287C227.168 54.4087 218.606 55.335 217.05 52.785C215.651 50.49 216.645 49.035 216.975 46.065C223.463 47.3775 236.535 47.64 238.89 55.0912C239.801 57.96 237.191 77.7075 231.881 73.9537Z" stroke="#442257" stroke-width="1.5" stroke-linecap="round" stroke-linejoin="round"/>
<path d="M223.365 114.195H235.834" stroke="#442257" stroke-width="1.5" stroke-linecap="round" stroke-linejoin="round"/>
<path d="M246.829 124.5C246.109 127.174 244.436 132.139 243.259 134.625C242.884 135.424 242.156 136.912 241.305 138.66" stroke="#442257" stroke-width="1.5" stroke-linecap="round" stroke-linejoin="round"/>
<path d="M293.858 122.25C297.143 124.327 302.951 128.546 301.515 131.794C300.079 135.041 295.961 131.295 293.576 129.585C294.398 130.924 294.878 133.451 292.699 133.736" stroke="#442257" stroke-width="1.5" stroke-linecap="round" stroke-linejoin="round"/>
<path d="M176.666 76.1248C177.461 81.3148 176.666 87.2923 176.16 90.311C175.316 95.3775 173.803 100.309 171.66 104.977" stroke="#442257" stroke-width="1.5" stroke-linecap="round" stroke-linejoin="round"/>
<path d="M154.65 102C155.418 99.625 155.912 97.1705 156.124 94.6836C147.308 95.2574 151.688 82.9874 157.935 86.4149L158.145 84.3299" stroke="#442257" stroke-width="1.5" stroke-linecap="round" stroke-linejoin="round"/>
<path d="M158.198 81.6261C162.375 83.2498 167.363 73.8748 167.974 70.7248C170.355 70.7848 175.118 74.4148 177.004 76.0648C179.723 71.0248 178.729 65.8423 173.404 63.4648C169.815 61.8598 167.108 61.5898 164.745 62.2536C162.221 62.9698 159.716 63.8023 156.833 66.5436C154.26 68.9848 152.479 72.9823 152.708 76.6011C152.861 78.8248 155.333 84.5361 158.126 84.3186C158.25 83.9098 158.408 83.5461 158.198 81.6261Z" stroke="#442257" stroke-width="1.5" stroke-linecap="round" stroke-linejoin="round"/>
<path d="M159.315 64.4138C161.014 61.0801 154.035 57.7276 152.91 61.9051C150.66 56.3813 145.361 64.8263 145.196 67.5713C144.994 70.9463 149.303 77.9513 152.869 74.1751" stroke="#442257" stroke-width="1.5" stroke-linecap="round" stroke-linejoin="round"/>
<path d="M157.174 131.355C158.608 123.968 159.129 116.433 158.726 108.919C158.591 106.829 157.661 104.87 156.126 103.446C154.592 102.021 152.57 101.238 150.476 101.257C149.805 101.257 149.141 101.291 148.504 101.321C143.149 101.565 139.294 103.485 135.206 107.002C128.25 113.002 123.9 120.592 121.331 129.33C118.219 139.849 117.855 150.739 117.855 161.512C126.218 161.704 134.269 162.637 137.936 162.885C142.976 163.237 148.286 163.549 153.78 163.549C153.78 163.549 155.201 153.799 155.584 150.934" stroke="#442257" stroke-width="1.5" stroke-linecap="round" stroke-linejoin="round"/>
<path d="M135.788 117.135C134.01 125.869 132.233 134.782 131.505 143.704C131.16 147.945 131.051 152.025 134.97 152.782C140.149 153.78 145.5 153.007 151.935 151.755C155.903 150.986 159.06 149.977 164.411 148.192C167.224 141.877 168.33 137.197 174.66 133.32C169.268 132.304 165.334 131.711 159.814 131.73C156.48 131.73 145.14 129.855 146.145 135.649C153.011 135.851 153.233 125.524 152.704 121.087" stroke="#442257" stroke-width="1.5" stroke-linecap="round" stroke-linejoin="round"/>
<path d="M157.916 105.881C161.899 109.755 167.576 109.766 171.671 104.97C171.353 110.336 170.603 116.636 169.83 121.984C169.455 124.642 168.78 129.18 168.533 131.122" stroke="#442257" stroke-width="1.5" stroke-linecap="round" stroke-linejoin="round"/>
<path d="M172.583 103.755C177.896 105.739 180.083 112.796 180.645 118.189C180.855 120.146 181.02 122.111 181.11 124.08C181.185 125.723 181.208 127.365 181.204 129.008C181.204 129.938 181.148 131.258 181.174 132.18C181.174 132.18 186.315 132.364 188.438 132.69C190.56 133.016 192.653 133.29 195.124 134.475C193.309 136.35 189.911 138.836 189.611 141.461" stroke="#442257" stroke-width="1.5" stroke-linecap="round" stroke-linejoin="round"/>
<path d="M120.056 162.03C120.056 162.03 119.963 179.411 120.278 188.137C120.578 196.462 120.566 205.039 120.829 213.322C121.204 225.052 120.653 256.852 121.238 268.447C124.238 269.505 137.156 268.714 140.228 268.822C143.066 268.927 143.854 269.126 144 266.696C144.225 262.807 144.619 252.821 144.608 248.959C144.563 236.554 145.155 209.062 145.515 196.612C145.74 188.962 146.64 171.352 146.64 171.352" stroke="#442257" stroke-width="1.5" stroke-linecap="round" stroke-linejoin="round"/>
<path d="M121.556 277.5H146.625C147.311 271.196 126.184 273 121.875 273.375C121.819 274.331 121.721 276.54 121.556 277.5Z" fill="#442257" stroke="#442257" stroke-width="1.5" stroke-linecap="round" stroke-linejoin="round"/>
<path d="M122.839 268.86V272.97" stroke="#442257" stroke-width="1.5" stroke-linecap="round" stroke-linejoin="round"/>
<path d="M140.216 269.138L140.104 273.251" stroke="#442257" stroke-width="1.5" stroke-linecap="round" stroke-linejoin="round"/>
<path d="M175.414 177.971C173.25 170.25 171.094 164.126 169.271 159.405" stroke="#442257" stroke-width="1.5" stroke-linecap="round" stroke-linejoin="round"/>
<path d="M169.365 262.774C172.433 262.024 176.04 261.139 178.32 260.591C181.879 259.736 187.346 257.561 187.346 257.561C187.193 250.226 186.18 238.721 184.601 226.061C183.023 213.401 180.495 198.949 178.429 189.87C177.814 187.172 177.189 184.617 176.554 182.205" stroke="#442257" stroke-width="1.5" stroke-linecap="round" stroke-linejoin="round"/>
<path d="M146.25 179.396C149.692 184.429 151.125 189.941 152.809 195.829C154.916 203.134 159.082 224.479 160.327 231.949C161.422 238.5 162.292 246.161 162.904 253.478" stroke="#442257" stroke-width="1.5" stroke-linecap="round" stroke-linejoin="round"/>
<path d="M170.021 271.196C170.021 271.196 176.936 268.721 180.855 267.446C183.48 266.599 190.556 264.75 190.399 269.235C186.802 270.304 174.045 275.347 170.036 276.45L170.021 271.196Z" fill="#442257" stroke="#442257" stroke-width="1.5" stroke-linecap="round" stroke-linejoin="round"/>
<path d="M182.809 259.507L183.724 266.362" stroke="#442257" stroke-width="1.5" stroke-linecap="round" stroke-linejoin="round"/>
<path d="M174.409 133.875C181.444 135.577 190.684 141.75 195.491 146.876" stroke="#442257" stroke-width="1.5" stroke-linecap="round" stroke-linejoin="round"/>
<path d="M189.229 158.085C187.354 156.701 185.737 153.019 185.164 151.755" stroke="#442257" stroke-width="1.5" stroke-linecap="round" stroke-linejoin="round"/>
<path d="M183.225 158.794C181.901 157.417 180.353 154.924 179.633 153.757" stroke="#442257" stroke-width="1.5" stroke-linecap="round" stroke-linejoin="round"/>
<path d="M194.464 135.124C194.464 135.124 204.754 138.041 209.839 139.822C214.013 141.285 219.514 142.924 221.546 146.947" stroke="#442257" stroke-width="1.5" stroke-linecap="round" stroke-linejoin="round"/>
<path d="M207.135 154.5C208.729 156.72 207.472 159.465 211.05 159.405C214.174 159.356 215.381 156.03 215.149 153.277" stroke="#442257" stroke-width="1.5" stroke-linecap="round" stroke-linejoin="round"/>
<path d="M221.543 153.322C222.259 159.671 206.809 164.1 205.418 159.097" stroke="#442257" stroke-width="1.5" stroke-linecap="round" stroke-linejoin="round"/>
<path d="M137.775 104.46C135.525 102.889 129.622 104.066 127.856 104.801C124.59 106.163 121.504 108.878 120.221 112.193C118.309 117.135 118.504 122.861 120.904 126.615" stroke="#442257" stroke-width="1.5" stroke-linecap="round" stroke-linejoin="round"/>
<path d="M121.155 116.359C121.185 118.474 121.425 121.144 122.985 122.734" stroke="#442257" stroke-width="1.5" stroke-linecap="round" stroke-linejoin="round"/>
<path d="M123.611 111.892C123.334 113.295 124.155 118.174 125.194 119.167" stroke="#442257" stroke-width="1.5" stroke-linecap="round" stroke-linejoin="round"/>
<path d="M168.934 86.4225V85.2038" stroke="#442257" stroke-width="1.5" stroke-linecap="round" stroke-linejoin="round"/>
<path d="M172.583 86.2499V85.0349" stroke="#442257" stroke-width="1.5" stroke-linecap="round" stroke-linejoin="round"/>
<path d="M166.804 91.1435C167.014 92.3323 169.324 92.9135 170.524 92.7373" stroke="#442257" stroke-width="1.5" stroke-linecap="round" stroke-linejoin="round"/>
<path d="M154.946 89.7673C155.326 90.103 155.733 90.4077 156.161 90.6786" stroke="#442257" stroke-width="1.5" stroke-linecap="round" stroke-linejoin="round"/>
<path d="M149.625 74.7224C148.556 72.9674 148.665 68.8236 149.471 67.1136" stroke="#442257" stroke-width="1.5" stroke-linecap="round" stroke-linejoin="round"/>
<path d="M206.175 186.877C211.136 186.649 220.822 186.69 225.187 186.457C228.709 186.266 236.164 186.21 236.164 186.21V190.5C236.164 190.5 217.564 190.575 206.164 190.927" stroke="#442257" stroke-width="1.5" stroke-linecap="round" stroke-linejoin="round"/>
<path d="M169.215 182.093C169.406 189.315 169.59 196.56 169.59 203.786C169.59 214.984 169.455 241.043 169.519 252.233C169.571 260.809 169.106 269.366 169.309 277.984H162.904V163.661C162.904 157.346 163.226 151.264 167.749 148.564L170.876 149.708L171.806 150.574L173.501 153.319C172.332 153.658 171.294 154.344 170.524 155.288C168.446 157.973 168.881 168.668 169.024 174.278C169.054 175.528 169.085 176.778 169.118 178.028" stroke="#442257" stroke-width="1.5" stroke-linecap="round" stroke-linejoin="round"/>
<path d="M198.72 182.212C198.72 182.212 177.521 182.059 166.759 182.096C166.586 180.536 166.759 179.685 166.879 178.117C167.543 177.952 183.634 177.967 189.353 177.832C192.874 177.746 198.829 177.907 198.829 177.907" stroke="#442257" stroke-width="1.5" stroke-linecap="round" stroke-linejoin="round"/>
<path d="M193.312 153C194.891 153.375 196.222 153.96 197.122 154.901C199.785 157.691 199.451 168.656 199.316 174.266C199.084 184.072 198.735 193.939 198.735 203.775C198.735 214.972 198.682 241.031 198.806 252.221C198.9 260.797 199.219 269.355 199.016 277.972H205.425V163.661C205.425 161.276 205.102 158.006 206.107 155.786C207.049 153.716 209.614 153.319 211.605 153.097C211.605 153.097 229.204 152.141 231.015 154.826C232.826 157.511 232.834 168.652 232.695 174.262C232.602 178.245 232.544 182.236 232.519 186.236" stroke="#442257" stroke-width="1.5" stroke-linecap="round" stroke-linejoin="round"/>
<path d="M232.5 190.594C232.5 194.992 232.5 199.391 232.5 203.786C232.5 214.984 232.68 241.042 232.571 252.232C232.489 260.809 232.987 269.366 232.781 277.984H239.19V163.661C239.19 155.149 239.359 147.056 228.69 147.112C223.661 147.139 218.539 147.112 213.386 147.112H190.747" stroke="#442257" stroke-width="1.5" stroke-linecap="round" stroke-linejoin="round"/>
<path d="M249.158 94.8524C250.114 98.3324 247.706 104.227 246.78 107.404" stroke="#442257" stroke-width="1.5" stroke-linecap="round" stroke-linejoin="round"/>
<path d="M198.75 93.1124C197.066 97.6124 195 102.022 193.275 106.492" stroke="#442257" stroke-width="1.5" stroke-linecap="round" stroke-linejoin="round"/>
<path d="M190.226 106.5C189.928 107.072 189.72 107.687 189.608 108.322" stroke="#442257" stroke-width="1.5" stroke-linecap="round" stroke-linejoin="round"/>
<path d="M131.951 109.594C131.246 109.594 130.451 109.68 129.829 109.466C129.829 110.31 129.938 111.157 129.941 112.035" stroke="#442257" stroke-width="1.5" stroke-linecap="round" stroke-linejoin="round"/>
<path d="M233.708 119.119C229.924 119.152 226.328 117.994 222.506 118.804C221.914 122.036 221.554 125.13 221.006 128.381C220.654 130.425 220.061 134.899 220.061 134.899L231.836 135.75C232.26 135.716 234.555 120.975 234.266 119.119C234.079 119.115 233.895 119.119 233.708 119.119Z" fill="white" stroke="white" stroke-width="1.5" stroke-linecap="round" stroke-linejoin="round"/>
<path d="M231.375 126.424V124.924C230.444 124.927 229.513 124.871 228.589 124.755C228.758 123.762 228.866 122.761 228.911 121.755L227.411 121.71C227.368 122.668 227.264 123.622 227.1 124.567C226.087 124.439 225.068 124.367 224.047 124.354V125.854C224.988 125.866 225.927 125.931 226.86 126.049C226.684 127.025 226.564 128.01 226.5 129L228 129.067C228.059 128.113 228.17 127.163 228.334 126.221C229.272 126.338 230.216 126.402 231.161 126.412L231.375 126.424Z" fill="#F15D4A" stroke="#F15D4A" stroke-width="1.5" stroke-linecap="round" stroke-linejoin="round"/>
<path d="M222.45 133.125C223.02 133.042 224.051 132.709 224.606 132.836C224.876 132.975 225.107 133.177 225.281 133.425C225.9 133.462 226.406 132.859 227.096 132.754C228.563 132.536 227.599 132.971 228.51 133.53C228.908 133.774 229.523 133.492 230.063 133.987" stroke="#442257" stroke-width="1.5" stroke-linecap="round" stroke-linejoin="round"/>
<path d="M217.403 68.1037L217.568 66.4199" stroke="#442257" stroke-width="1.5" stroke-linecap="round" stroke-linejoin="round"/>
<path d="M215.108 213.285C215.606 215.85 217.061 218.19 217.691 220.612" stroke="#442257" stroke-width="1.5" stroke-linecap="round" stroke-linejoin="round"/>
<path d="M222.431 212.854L221.625 216.079" stroke="#442257" stroke-width="1.5" stroke-linecap="round" stroke-linejoin="round"/>
<path d="M188.036 143.917C190.56 145.732 193.635 151.916 193.575 154.984C193.508 158.734 190.436 158.201 187.17 158.49C184.718 158.707 180.96 159.491 178.583 158.572C176.333 157.71 174.889 155.04 173.614 153.176C172.815 152.01 172.031 150.517 170.876 149.707C169.721 148.897 166.853 148.207 164.411 148.207" stroke="#442257" stroke-width="1.5" stroke-linecap="round" stroke-linejoin="round"/>
<path d="M214.159 146.936C213.998 146.561 213.353 145.41 213.353 145.41" stroke="#442257" stroke-width="1.5" stroke-linecap="round" stroke-linejoin="round"/>
<path d="M215.449 102.094C217.74 102.157 220.039 102.022 222.341 102.022" stroke="#442257" stroke-width="1.5" stroke-linecap="round" stroke-linejoin="round"/>
<path d="M155.209 156.81C157.556 156.9 161.64 156.401 163.418 154.792" stroke="#442257" stroke-width="1.5" stroke-linecap="round" stroke-linejoin="round"/>
<path d="M228.233 118.939C228.233 118.939 228.484 115.448 229.733 113.588" stroke="#442257" stroke-width="1.5" stroke-linecap="round" stroke-linejoin="round"/>
<path d="M128.88 216.956C127.755 214.811 125.505 212.081 124.601 215.955C124.309 217.204 124.436 218.58 124.519 219.877C124.312 219.877 124.144 219.907 124.057 219.907C123.281 219.907 122.235 219.907 121.23 219.99C120.96 219.491 120.697 219.015 120.48 218.587C119.794 217.144 116.452 211.016 115.23 215.029C114.041 218.947 114.296 223.147 112.605 226.965C111.48 229.492 109.549 232.755 106.661 233.486C104.497 234.037 102.161 233.685 99.96 233.752C97.1775 233.831 94.2225 234.184 91.4287 234.289C88.2412 234.405 84.7275 234.289 81.5812 234.799C80.5237 234.964 79.2 235.095 78.0225 235.395C77.5044 235.125 77.009 234.814 76.5412 234.465L76.2525 234.255C76.1547 234.188 76.0608 234.115 75.9712 234.037L75.4125 233.569C75.0375 233.235 74.685 232.909 74.355 232.537C74.025 232.166 73.6875 231.787 73.365 231.412C73.0425 231.037 72.7462 230.617 72.4762 230.194C71.9106 229.364 71.4199 228.485 71.01 227.569C70.905 227.347 70.8225 227.134 70.7325 226.909C70.6425 226.684 70.5637 226.462 70.4962 226.23L70.3912 225.889L70.2975 225.54C70.2262 225.307 70.185 225.071 70.1325 224.835C69.9412 223.911 69.8593 222.969 69.8887 222.026C69.9126 221.155 70.0786 220.294 70.38 219.476C70.4126 219.38 70.4514 219.286 70.4962 219.195C70.5412 219.101 70.5712 219.019 70.6237 218.914C70.7475 218.685 70.8675 218.456 70.9987 218.224C71.2575 217.762 71.5425 217.297 71.8425 216.821C72.4387 215.872 73.0987 214.886 73.7437 213.821C74.4321 212.721 75.0339 211.569 75.5437 210.375C75.8081 209.746 76.0311 209.101 76.2112 208.444C76.4005 207.769 76.5384 207.081 76.6237 206.385C76.7234 205.645 76.7435 204.897 76.6837 204.154C76.6242 203.328 76.4356 202.517 76.125 201.75C75.7663 200.917 75.2375 200.169 74.5725 199.552C74.4 199.406 74.2387 199.252 74.0512 199.117C73.8637 198.982 73.6762 198.851 73.4737 198.742C73.2712 198.634 73.08 198.54 72.8812 198.442C72.6825 198.345 72.5062 198.285 72.2925 198.206C71.5468 197.954 70.7716 197.801 69.9862 197.749C69.2467 197.701 68.5043 197.728 67.77 197.827C67.0271 197.928 66.2977 198.11 65.595 198.371C64.8124 198.651 64.0794 199.053 63.4237 199.564L63.3712 199.605L63.2662 199.695C62.8623 200.109 62.6311 200.661 62.6196 201.239C62.6082 201.818 62.8173 202.379 63.2045 202.808C63.5916 203.238 64.1279 203.504 64.7042 203.553C65.2806 203.601 65.8538 203.429 66.3075 203.07C66.5704 202.857 66.867 202.69 67.185 202.575C67.5749 202.423 67.9815 202.317 68.3962 202.26C68.8197 202.2 69.2481 202.182 69.675 202.207C70.0581 202.234 70.4361 202.31 70.8 202.432L71.025 202.522C71.0847 202.56 71.1474 202.593 71.2125 202.62C71.2607 202.657 71.3108 202.692 71.3625 202.725C71.4112 202.759 71.4562 202.815 71.505 202.856C71.6967 203.039 71.8453 203.262 71.94 203.509C72.0513 203.828 72.1169 204.161 72.135 204.499C72.1532 204.92 72.1281 205.342 72.06 205.759C71.9843 206.22 71.8727 206.676 71.7262 207.12C71.5801 207.582 71.4022 208.033 71.1937 208.47C70.9812 208.931 70.7447 209.38 70.485 209.816C70.23 210.262 69.9337 210.712 69.6262 211.159C69.0075 212.059 68.3175 212.977 67.6125 213.967C67.2637 214.462 66.9075 214.969 66.5625 215.509C66.39 215.771 66.2212 216.052 66.0525 216.33C65.9625 216.48 65.8687 216.66 65.7787 216.825C65.6887 216.99 65.595 217.162 65.5237 217.335C64.9079 218.668 64.5152 220.093 64.3612 221.554C64.2034 222.941 64.211 224.342 64.3837 225.727C64.547 227.096 64.8486 228.444 65.2837 229.751L65.6175 230.707L65.9925 231.637C66.1125 231.952 66.2625 232.249 66.3975 232.552L66.6075 233.01L66.8362 233.452L67.065 233.895C67.14 234.045 67.2187 234.191 67.305 234.337L67.8 235.204C68.1562 235.77 68.5012 236.329 68.895 236.891C69.2887 237.454 69.6937 237.979 70.1137 238.519L70.7775 239.302C70.8862 239.437 71.0025 239.565 71.1225 239.677L71.4787 240.052L71.8537 240.427L72.2287 240.802L72.7875 241.324C72.6825 241.74 72.5962 242.164 72.5212 242.584C71.9737 245.827 72.1462 249.034 72.255 252.221C72.3375 254.846 71.6512 256.699 71.0362 259.174C70.3612 261.892 70.41 264.821 70.4137 267.649C70.4137 271.721 70.275 277.477 70.275 277.477H80.595C80.595 277.477 80.82 270.979 81.345 268.331C81.72 266.505 82.0312 265.601 83.805 264.727C85.5787 263.854 87.4725 263.269 88.9538 261.945C89.5136 261.442 90.0076 260.87 90.4237 260.242C92.451 260.795 94.5206 261.177 96.6112 261.386C99.6998 261.72 102.823 261.473 105.821 260.659C106.039 261 106.249 261.322 106.447 261.619C106.699 262.031 107.044 262.38 107.454 262.636C107.864 262.891 108.329 263.048 108.81 263.092C108.731 264.154 108.641 265.211 108.566 266.257C108.33 269.584 107.917 277.477 107.917 277.477H116.235C116.235 275.977 115.11 275.302 114.165 274.65C114.87 272.505 115.822 269.685 116.415 268.252C117.182 266.435 117.949 264.609 118.714 262.774C119.592 263.136 120.429 263.591 121.211 264.131C122.336 264.904 123.319 265.631 124.71 265.001C125.801 264.517 127.039 262.95 126.96 261.709C126.859 260.209 125.269 257.801 124.046 256.957C123.283 256.453 122.428 256.103 121.53 255.926C123.146 251.906 127.309 244.301 128.966 240.315C132.397 232.05 133.875 226.582 128.88 216.956Z" fill="#FAB550" stroke="#FAB550" stroke-width="1.5" stroke-linecap="round" stroke-linejoin="round"/>
<path d="M123.99 230.314C124.898 231.12 126.135 231.206 126.99 230.16C127.845 229.114 127.481 228.285 127.365 227.04C127.691 228.011 127.53 229.335 128.396 229.999C129.503 230.85 130.763 230.239 130.898 229.054" stroke="#442257" stroke-width="1.5" stroke-linecap="round" stroke-linejoin="round"/>
<path d="M122.786 224.891L123.109 226.252" stroke="#442257" stroke-width="1.5" stroke-linecap="round" stroke-linejoin="round"/>
<path d="M129.705 224.374L130.024 225.735" stroke="#442257" stroke-width="1.5" stroke-linecap="round" stroke-linejoin="round"/>
<path d="M104.483 260.97C102.952 258.961 101.79 256.696 101.051 254.28" stroke="#442257" stroke-width="1.5" stroke-linecap="round" stroke-linejoin="round"/>
<path d="M117.127 250.095C117.127 251.355 117.544 252.952 117.877 254.171C119.164 254.276 120.592 254.449 121.856 254.546" stroke="#442257" stroke-width="1.5" stroke-linecap="round" stroke-linejoin="round"/>
<path d="M124.046 262.399C124.474 262.894 124.942 263.411 125.066 264.041" stroke="#442257" stroke-width="1.5" stroke-linecap="round" stroke-linejoin="round"/>
<path d="M125.494 261.109C125.921 261.604 126.386 262.121 126.51 262.751" stroke="#442257" stroke-width="1.5" stroke-linecap="round" stroke-linejoin="round"/>
<path d="M108.956 264.709C112.088 264.214 115.661 262.834 118.613 264.398" stroke="#442257" stroke-width="1.5" stroke-linecap="round" stroke-linejoin="round"/>
<path d="M84.9825 259.391C86.1863 260.19 88.3875 260.989 89.8163 260.97" stroke="#442257" stroke-width="1.5" stroke-linecap="round" stroke-linejoin="round"/>
<path d="M76.8074 277.609C76.8074 274.729 77.1824 269.171 77.7449 267.045C78.3074 264.919 81.9524 263.227 84.0374 260.497C85.3492 258.859 86.224 256.915 86.5799 254.846" stroke="#442257" stroke-width="1.5" stroke-linecap="round" stroke-linejoin="round"/>
<path d="M117.184 217.414V219.566" stroke="#442257" stroke-width="1.5" stroke-linecap="round" stroke-linejoin="round"/>
<path d="M126.574 217.013C126.418 217.577 126.418 218.173 126.574 218.738" stroke="#442257" stroke-width="1.5" stroke-linecap="round" stroke-linejoin="round"/>
<path d="M115.132 276.36L115.564 277.222" stroke="#442257" stroke-width="1.5" stroke-linecap="round" stroke-linejoin="round"/>
<path d="M113.258 276.36L113.689 277.222" stroke="#442257" stroke-width="1.5" stroke-linecap="round" stroke-linejoin="round"/>
<path d="M79.4588 276.833V277.5" stroke="#442257" stroke-width="1.5" stroke-linecap="round" stroke-linejoin="round"/>
<path d="M74.9589 276.833V277.5" stroke="#442257" stroke-width="1.5" stroke-linecap="round" stroke-linejoin="round"/>
<path d="M73.0838 276.833V277.5" stroke="#442257" stroke-width="1.5" stroke-linecap="round" stroke-linejoin="round"/>
</svg>
