<svg width="375" height="300" viewBox="0 0 375 300" fill="none" xmlns="http://www.w3.org/2000/svg">
<g clip-path="url(#clip0)">
<path d="M261.483 158.776C258.86 153.781 253.614 147.425 251.507 156.445C250.825 159.352 251.123 162.557 251.315 165.578C250.834 165.578 250.441 165.648 250.24 165.648C248.43 165.648 245.991 165.648 243.647 165.84C243.018 164.679 242.406 163.57 241.899 162.574C240.299 159.213 232.509 144.945 229.659 154.288C226.887 163.412 227.482 173.192 223.539 182.08C220.916 187.966 216.413 195.562 209.681 197.265C204.637 198.548 199.19 197.727 194.058 197.885C187.571 198.068 180.681 198.889 174.168 199.133C166.736 199.404 158.544 199.133 151.209 200.321C148.743 200.705 145.657 201.011 142.912 201.709C141.704 201.082 140.549 200.357 139.458 199.544L138.785 199.055C138.557 198.898 138.338 198.729 138.13 198.548L136.827 197.457C135.953 196.68 135.131 195.92 134.361 195.056C133.592 194.191 132.805 193.309 132.053 192.436C131.301 191.563 130.611 190.585 129.981 189.598C128.662 187.666 127.518 185.621 126.563 183.486C126.318 182.971 126.126 182.473 125.916 181.95C125.706 181.426 125.522 180.91 125.365 180.369L125.12 179.575L124.902 178.763C124.735 178.221 124.639 177.671 124.517 177.121C124.071 174.971 123.88 172.776 123.949 170.581C124.004 168.553 124.391 166.547 125.094 164.644C125.17 164.42 125.26 164.201 125.365 163.989C125.47 163.77 125.54 163.578 125.662 163.334C125.951 162.801 126.23 162.269 126.536 161.727C127.14 160.653 127.804 159.571 128.504 158.462C129.894 156.253 131.432 153.956 132.936 151.476C134.541 148.914 135.944 146.231 137.133 143.452C137.749 141.989 138.269 140.487 138.689 138.955C139.13 137.384 139.452 135.782 139.651 134.162C139.883 132.44 139.93 130.698 139.791 128.966C139.652 127.044 139.212 125.156 138.488 123.369C137.652 121.431 136.419 119.688 134.868 118.253C134.466 117.912 134.09 117.554 133.653 117.24C133.216 116.926 132.779 116.62 132.307 116.367C131.835 116.114 131.389 115.895 130.925 115.668C130.462 115.441 130.051 115.301 129.553 115.118C127.814 114.532 126.007 114.174 124.176 114.053C122.452 113.943 120.721 114.004 119.009 114.236C117.277 114.47 115.576 114.895 113.938 115.502C112.113 116.153 110.404 117.09 108.876 118.279L108.753 118.375L108.509 118.585C107.567 119.549 107.028 120.834 107.001 122.181C106.974 123.527 107.462 124.833 108.365 125.834C109.267 126.834 110.517 127.454 111.861 127.567C113.205 127.68 114.541 127.278 115.599 126.443C116.212 125.948 116.904 125.558 117.645 125.29C118.554 124.936 119.502 124.689 120.469 124.557C121.456 124.416 122.455 124.375 123.45 124.435C124.343 124.497 125.225 124.673 126.073 124.959L126.598 125.168C126.737 125.256 126.883 125.332 127.035 125.395C127.147 125.483 127.264 125.564 127.384 125.64C127.498 125.718 127.603 125.849 127.717 125.945C128.164 126.37 128.51 126.889 128.731 127.465C128.99 128.208 129.143 128.984 129.186 129.77C129.228 130.751 129.169 131.734 129.011 132.704C128.834 133.779 128.574 134.838 128.233 135.873C127.892 136.948 127.477 137.998 126.991 139.016C126.496 140.089 125.944 141.136 125.339 142.151C124.744 143.19 124.053 144.238 123.337 145.277C121.894 147.373 120.285 149.512 118.642 151.817C117.829 152.969 116.998 154.148 116.194 155.406C115.791 156.017 115.398 156.672 115.005 157.318C114.795 157.667 114.576 158.086 114.366 158.47C114.156 158.855 113.938 159.256 113.772 159.658C112.336 162.762 111.42 166.08 111.062 169.481C110.694 172.711 110.711 175.973 111.114 179.199C111.495 182.385 112.198 185.524 113.212 188.568L113.99 190.795L114.865 192.96C115.144 193.693 115.494 194.383 115.809 195.091L116.298 196.156L116.832 197.186L117.365 198.216C117.54 198.566 117.724 198.906 117.925 199.247L119.079 201.264C119.909 202.582 120.714 203.883 121.632 205.193C122.55 206.503 123.494 207.725 124.473 208.982L126.021 210.807C126.274 211.122 126.545 211.419 126.825 211.681L127.656 212.554L128.53 213.427L129.404 214.3L130.707 215.514C130.462 216.483 130.261 217.47 130.086 218.447C128.81 226 129.212 233.466 129.465 240.888C129.658 247 128.058 251.313 126.624 257.076C125.05 263.406 125.164 270.226 125.173 276.809C125.173 286.292 124.849 299.695 124.849 299.695H148.909C148.909 299.695 149.434 284.563 150.658 278.398C151.532 274.146 152.258 272.042 156.393 270.007C160.529 267.973 164.944 266.611 168.397 263.529C169.703 262.357 170.854 261.025 171.825 259.564C176.551 260.85 181.376 261.741 186.25 262.228C193.451 263.005 200.734 262.431 207.723 260.534C208.23 261.328 208.72 262.079 209.183 262.769C209.77 263.73 210.573 264.541 211.53 265.137C212.486 265.733 213.569 266.097 214.691 266.2C214.507 268.671 214.298 271.134 214.123 273.57C213.572 281.315 212.61 299.695 212.61 299.695H232.002C232.002 296.202 229.379 294.63 227.176 293.111C228.82 288.117 231.04 281.551 232.422 278.215C234.211 273.983 235.997 269.731 237.781 265.458C239.829 266.302 241.781 267.362 243.604 268.619C246.227 270.418 248.517 272.112 251.761 270.645C254.305 269.518 257.19 265.869 257.007 262.978C256.771 259.486 253.064 253.88 250.213 251.916C248.433 250.741 246.44 249.925 244.347 249.514C248.115 240.154 257.82 222.447 261.684 213.165C269.684 193.921 273.129 181.19 261.483 158.776Z" fill="#FAB550" stroke="#FAB550" stroke-width="1.5" stroke-linecap="round" stroke-linejoin="round"/>
<path d="M250.083 189.878C252.198 191.755 255.083 191.956 257.077 189.52C259.07 187.084 258.222 185.154 257.951 182.255C258.712 184.517 258.336 187.599 260.355 189.145C262.935 191.127 265.872 189.703 266.187 186.944" stroke="#442257" stroke-width="1.5" stroke-linecap="round" stroke-linejoin="round"/>
<path d="M247.276 177.252L248.028 180.421" stroke="#442257" stroke-width="1.5" stroke-linecap="round" stroke-linejoin="round"/>
<path d="M263.407 176.047L264.15 179.216" stroke="#442257" stroke-width="1.5" stroke-linecap="round" stroke-linejoin="round"/>
<path d="M204.602 261.258C201.032 256.58 198.324 251.306 196.603 245.681" stroke="#442257" stroke-width="1.5" stroke-linecap="round" stroke-linejoin="round"/>
<path d="M234.083 235.937C234.083 238.87 235.053 242.59 235.831 245.428C238.83 245.672 242.161 246.074 245.107 246.301" stroke="#442257" stroke-width="1.5" stroke-linecap="round" stroke-linejoin="round"/>
<path d="M250.213 264.585C251.21 265.738 252.303 266.943 252.591 268.41" stroke="#442257" stroke-width="1.5" stroke-linecap="round" stroke-linejoin="round"/>
<path d="M253.588 261.582C254.585 262.734 255.669 263.939 255.958 265.406" stroke="#442257" stroke-width="1.5" stroke-linecap="round" stroke-linejoin="round"/>
<path d="M215.032 269.964C222.332 268.812 230.664 265.598 237.545 269.239" stroke="#442257" stroke-width="1.5" stroke-linecap="round" stroke-linejoin="round"/>
<path d="M159.139 257.582C161.945 259.442 167.077 261.302 170.408 261.258" stroke="#442257" stroke-width="1.5" stroke-linecap="round" stroke-linejoin="round"/>
<path d="M140.079 300C140.079 293.294 140.953 280.354 142.265 275.403C143.576 270.452 152.074 266.514 156.935 260.158C159.994 256.343 162.033 251.816 162.863 246.999" stroke="#442257" stroke-width="1.5" stroke-linecap="round" stroke-linejoin="round"/>
<path d="M234.214 159.841V164.853" stroke="#442257" stroke-width="1.5" stroke-linecap="round" stroke-linejoin="round"/>
<path d="M256.106 158.907C255.743 160.222 255.743 161.61 256.106 162.924" stroke="#442257" stroke-width="1.5" stroke-linecap="round" stroke-linejoin="round"/>
<path d="M229.431 297.092L230.437 299.101" stroke="#442257" stroke-width="1.5" stroke-linecap="round" stroke-linejoin="round"/>
<path d="M225.06 297.092L226.066 299.101" stroke="#442257" stroke-width="1.5" stroke-linecap="round" stroke-linejoin="round"/>
<path d="M146.26 298.193V299.747" stroke="#442257" stroke-width="1.5" stroke-linecap="round" stroke-linejoin="round"/>
<path d="M135.77 298.193V299.747" stroke="#442257" stroke-width="1.5" stroke-linecap="round" stroke-linejoin="round"/>
<path d="M131.397 298.193V299.747" stroke="#442257" stroke-width="1.5" stroke-linecap="round" stroke-linejoin="round"/>
</g>
<defs>
<clipPath id="clip0">
<rect width="375" height="300" fill="white"/>
</clipPath>
</defs>
</svg>
