<svg width="375" height="300" viewBox="0 0 375 300" fill="none" xmlns="http://www.w3.org/2000/svg">
<g clip-path="url(#clip0)">
<path d="M236.35 82C235.751 81.1575 235.948 78.9855 236.737 78.4226C237.669 77.7562 239.921 78.0773 241.022 78.0773C241.89 78.0773 242.998 78.0532 243.604 78.9889C244.117 79.7866 243.985 81.1057 243.985 81.1057" stroke="#442257" stroke-width="1.5" stroke-linecap="round" stroke-linejoin="round"/>
<path d="M237.007 78.6798C234.916 78.7608 234.778 77.7385 235.18 76.9708C235.845 75.6938 238.125 76.041 241.009 76.0487C246.553 76.068 244.93 78.5795 244.221 79" stroke="#442257" stroke-width="1.5" stroke-linecap="round" stroke-linejoin="round"/>
<path d="M262.437 94.088C261.154 92.7529 259.505 91.8327 257.701 91.4446C256.88 90.4086 256.089 89.2507 255.59 88.6108C251.655 83.5716 244.906 80.2312 238.319 81.1529C233.333 81.8614 228.074 85.0342 226.546 89.9134C225.891 91.9969 225.713 94.3051 226.644 96.3315C227.223 97.5961 228.74 100.933 231.895 101.664C232.343 100.34 232.857 99.0394 233.435 97.7675C236.598 99.4891 242.197 98.7197 243.88 96.2439C244.195 99.6719 249.048 98.6778 251.542 98.0645C251.542 99.47 252.922 101.112 254.035 101.873C254.478 102.171 254.952 102.418 255.45 102.609C255.113 103.942 254.644 105.359 254.114 106.817C257.984 107.777 262.816 104.86 263.837 100.228C264.284 98.1598 263.811 95.6535 262.437 94.088Z" fill="#ABDDDF" stroke="#ABDDDF" stroke-width="1.5" stroke-linecap="round" stroke-linejoin="round"/>
<path d="M200 161C201.271 158.307 202.321 154.301 205 153" stroke="#442257" stroke-width="1.5" stroke-linecap="round" stroke-linejoin="round"/>
<path d="M216 141C212.807 141.054 209.643 141.633 206.631 142.715C201.497 144.631 196.096 149.581 192.536 153.673C188.726 158.068 182.832 162.965 181 164" stroke="#442257" stroke-width="1.5" stroke-linecap="round" stroke-linejoin="round"/>
<path d="M63 263C61.515 268.096 58.2582 278 58.2582 278H52C52 278 52.9664 267.963 53.5007 263.078" stroke="#442257" stroke-width="1.5" stroke-linecap="round" stroke-linejoin="round"/>
<path d="M134 262.677C135.484 267.883 138.74 278 138.74 278H145C145 278 144.038 266.991 143.5 262" stroke="#442257" stroke-width="1.5" stroke-linecap="round" stroke-linejoin="round"/>
<path d="M117.352 263C118.033 267.545 119 278 119 278H112.858C112.158 275.095 108 263 108 263" stroke="#442257" stroke-width="1.5" stroke-linecap="round" stroke-linejoin="round"/>
<path d="M254 262C255.434 267.061 258.961 278 258.961 278H265C265 278 264.071 267.297 263.555 262.445" stroke="#442257" stroke-width="1.5" stroke-linecap="round" stroke-linejoin="round"/>
<path d="M183.965 262C183.307 266.514 182 278 182 278H187.931C188.607 275.115 193 262 193 262" stroke="#442257" stroke-width="1.5" stroke-linecap="round" stroke-linejoin="round"/>
<path d="M277.797 147.62C273.842 146.079 267.961 146 262.497 146H262.234C262.099 147.212 261.904 148.514 261.757 149.894C260.586 160.888 256.316 172.17 252.823 182.633V182.929H183.64C180.366 182.734 176.039 183.104 173.655 185.652C171.54 187.896 172.509 191.551 172.701 194.506C173.05 199.893 173.996 205.321 174.826 210.692L175.27 213.483C172.99 213.917 172.476 216.85 169.839 216.823C168.078 216.823 167.282 215.376 165.731 214.979C160.811 213.726 159.196 219.969 154.731 219.532C152.249 219.292 151.257 217.976 148.516 219.741C147.637 220.31 146.747 222.016 146.011 222.36C145.065 222.786 130.903 223.508 128.259 223.826C127.335 223.938 125.296 223.766 124.504 223.078C123.711 222.39 122.938 218.178 122.491 213.909C122.044 209.641 120.538 204.15 114.784 203.862C109.031 203.574 95.3689 203.035 85.1165 204.023C73.2155 205.171 43.6339 198.935 43.1833 217.833C42.9392 227.907 42.6613 238.213 44.355 248.219C44.892 251.414 45.6131 256.24 47.9001 259.191C48.416 259.869 49.0524 260.447 49.7778 260.897C52.4066 262.505 56.3085 261.881 59.2115 261.881H77.3277C95.8683 261.881 113.823 261.634 132.36 261.746C135.086 261.746 137.802 261.54 140.378 260.702H262.632C269.189 260.702 270.245 253.715 272.021 247.441C274.83 237.607 275.998 227.402 277.523 217.284C278.841 208.534 280.309 199.612 282.311 191.001C284.455 181.776 284.917 172.507 285.86 163.114C286.569 156.1 284.692 150.294 277.797 147.62Z" fill="#FAB550" stroke="#FAB550" stroke-width="1.5" stroke-linecap="round" stroke-linejoin="round"/>
<g opacity="0.4">
<path opacity="0.4" d="M229 114L231 116" stroke="#F15D4A" stroke-width="1.5" stroke-linecap="round" stroke-linejoin="round"/>
<path opacity="0.4" d="M231 112L235 117" stroke="#F15D4A" stroke-width="1.5" stroke-linecap="round" stroke-linejoin="round"/>
<path opacity="0.4" d="M234 112L238 117" stroke="#F15D4A" stroke-width="1.5" stroke-linecap="round" stroke-linejoin="round"/>
<path opacity="0.4" d="M238 112L242 118" stroke="#F15D4A" stroke-width="1.5" stroke-linecap="round" stroke-linejoin="round"/>
<path opacity="0.4" d="M243 113L245 117" stroke="#F15D4A" stroke-width="1.5" stroke-linecap="round" stroke-linejoin="round"/>
</g>
<path d="M173.2 186C172.074 182.47 175.883 176.405 179.955 174.573C184.533 172.524 191.772 169.612 197 170.043" stroke="#442257" stroke-width="1.5" stroke-linecap="round" stroke-linejoin="round"/>
<path d="M212 165.818V165.716C209.337 158.679 192.199 161.348 186.764 162.264C175.294 164.198 166.047 172.484 154.514 175.789C152.48 176.376 144.905 176.925 140.288 179.495C139.003 179.495 137.73 179.635 136.491 179.696C132.382 179.896 127.391 181.047 123.929 181.509C121.413 181.255 118.577 181.391 116.053 181.509C113.741 181.615 100 183.171 100 183.171C102.866 183.928 105.047 186.956 106.215 189.859C107.819 193.819 108.475 199.52 108.196 203.866V204.486C110.833 204.566 113.127 204.672 114.765 204.755C120.536 205.047 122.046 210.6 122.494 214.923C122.942 219.246 123.688 223.459 124.513 224.201C125.338 224.943 127.349 225.087 128.28 224.958C130.916 224.636 145.135 223.906 146.084 223.474C146.838 223.137 147.715 221.411 148.597 220.824C151.346 219.038 152.341 220.37 154.83 220.612C159.309 221.055 160.929 214.737 165.863 216.005C167.418 216.407 168.217 217.86 169.984 217.872C172.62 217.872 173.155 215.006 175.441 214.567" stroke="#442257" stroke-width="1.5" stroke-linecap="round" stroke-linejoin="round"/>
<path d="M180.502 249C179.824 243.354 175.523 217.652 174.508 210.982C173.68 205.577 172.735 200.115 172.387 194.694C172.196 191.721 171.229 188.058 173.339 185.785C175.718 183.221 180.034 182.849 183.301 183.044H257.038C264.258 183.044 264.333 192.62 265 197.269" stroke="#442257" stroke-width="1.5" stroke-linecap="round" stroke-linejoin="round"/>
<path d="M253.123 183C256.73 172.58 261.139 161.368 262.349 150.431C263.017 144.414 264.634 139.844 257.696 138.184C255.136 137.57 250.137 136.941 248 137.004" stroke="#442257" stroke-width="1.5" stroke-linecap="round" stroke-linejoin="round"/>
<path d="M238 149C236.578 153.785 231.645 157.566 236.612 162.378C232.572 159.408 228.392 162.192 228.486 167.417C227.681 163.568 219.869 165.42 217.433 165.644C212.338 166.11 207.534 166.08 202.711 167.75C198.962 169.05 196.118 169.834 195.561 173.907C195.244 176.222 194.4 181.216 195.709 183" stroke="#442257" stroke-width="1.5" stroke-linecap="round" stroke-linejoin="round"/>
<path d="M249 165.297C249.322 165.151 249.658 165.052 250 165" stroke="#442257" stroke-width="1.5" stroke-linecap="round" stroke-linejoin="round"/>
<path d="M242 160C241.683 159.624 241.348 159.289 241 159" stroke="#442257" stroke-width="1.5" stroke-linecap="round" stroke-linejoin="round"/>
<path d="M244 155C244.563 154.718 244.912 154.369 245 154" stroke="#442257" stroke-width="1.5" stroke-linecap="round" stroke-linejoin="round"/>
<path d="M255 148C255.217 147.963 255.423 147.851 255.599 147.676C255.774 147.5 255.912 147.268 256 147" stroke="#442257" stroke-width="1.5" stroke-linecap="round" stroke-linejoin="round"/>
<path d="M253 143V142" stroke="#442257" stroke-width="1.5" stroke-linecap="round" stroke-linejoin="round"/>
<path d="M259 141.293C259.354 141.264 259.696 141.163 260 141" stroke="#442257" stroke-width="1.5" stroke-linecap="round" stroke-linejoin="round"/>
<path d="M257 160.078C257.433 159.924 257.831 159.987 258 160.374" stroke="#442257" stroke-width="1.5" stroke-linecap="round" stroke-linejoin="round"/>
<path d="M248 149L247 148" stroke="#442257" stroke-width="1.5" stroke-linecap="round" stroke-linejoin="round"/>
<path d="M236.413 182C234.567 176.652 239.251 175.312 243.686 174.936C249.07 174.476 251.443 168.599 257 170.312" stroke="#442257" stroke-width="1.5" stroke-linecap="round" stroke-linejoin="round"/>
<path d="M210 180C209.677 180.143 209.342 180.241 209 180.293" stroke="#442257" stroke-width="1.5" stroke-linecap="round" stroke-linejoin="round"/>
<path d="M203.297 174C203.124 173.7 203.022 173.356 203 173" stroke="#442257" stroke-width="1.5" stroke-linecap="round" stroke-linejoin="round"/>
<path d="M207 171V170" stroke="#442257" stroke-width="1.5" stroke-linecap="round" stroke-linejoin="round"/>
<path d="M219 175V176" stroke="#442257" stroke-width="1.5" stroke-linecap="round" stroke-linejoin="round"/>
<path d="M229 174.064C229.171 173.991 229.35 173.98 229.524 174.032C229.698 174.084 229.862 174.196 230 174.361" stroke="#442257" stroke-width="1.5" stroke-linecap="round" stroke-linejoin="round"/>
<path d="M234 167L235 166" stroke="#442257" stroke-width="1.5" stroke-linecap="round" stroke-linejoin="round"/>
<path d="M223 168C223 167.527 223.342 167.127 224 167" stroke="#442257" stroke-width="1.5" stroke-linecap="round" stroke-linejoin="round"/>
<path d="M185 177C181.876 176.97 176.198 180.613 176 184" stroke="#442257" stroke-width="1.5" stroke-linecap="round" stroke-linejoin="round"/>
<path d="M239.853 141.704C234.106 145.692 229.081 152.635 226.245 159C222.358 158.325 217.134 158.115 213 157.893C213.864 152.372 220.326 144.188 224.718 141.056C227.611 138.993 230.653 140.103 234.046 140.958C238.162 141.997 240.987 141.997 244.564 139.435C247.261 137.507 248.84 135.729 248.994 132.027C249.132 128.681 247.04 127.789 243.913 128.04C239.853 128.366 235.367 130.174 231.236 130.996C227.659 131.704 224.595 131.052 221.134 131.288C217.542 131.536 215.72 136.307 216.27 139.866C216.921 144.071 219.203 142.511 222.294 142.803" stroke="#442257" stroke-width="1.5" stroke-linecap="round" stroke-linejoin="round"/>
<path d="M224 159C223.523 159.607 223.184 160.285 223 161" stroke="#442257" stroke-width="1.5" stroke-linecap="round" stroke-linejoin="round"/>
<path d="M220 162C220.156 160.949 220.494 159.934 221 159" stroke="#442257" stroke-width="1.5" stroke-linecap="round" stroke-linejoin="round"/>
<path d="M217 158C216.457 159.27 216.179 161.069 216 162" stroke="#442257" stroke-width="1.5" stroke-linecap="round" stroke-linejoin="round"/>
<path d="M214 158C213.593 158.963 213.259 159.967 213 161" stroke="#442257" stroke-width="1.5" stroke-linecap="round" stroke-linejoin="round"/>
<path d="M68 204.112C74.6465 204.112 80.9645 205.447 85.2281 204.843C92.0257 203.874 101.467 203.896 108 204.145" stroke="#442257" stroke-width="1.5" stroke-linecap="round" stroke-linejoin="round"/>
<path d="M145.367 223C145.866 230.173 145.972 242.28 145.979 249.392C145.979 254.218 146.443 258.471 143 261" stroke="#442257" stroke-width="1.5" stroke-linecap="round" stroke-linejoin="round"/>
<path d="M119.556 261C120.233 243.401 120.615 224.335 117 208" stroke="#442257" stroke-width="1.5" stroke-linecap="round" stroke-linejoin="round"/>
<path d="M152 184C149.427 181.247 143.934 179.292 140 179" stroke="#442257" stroke-width="1.5" stroke-linecap="round" stroke-linejoin="round"/>
<path d="M62 209C63.5686 206.914 66.7059 204.733 69 204" stroke="#442257" stroke-width="1.5" stroke-linecap="round" stroke-linejoin="round"/>
<path d="M70 208C70.3399 206.687 72.7233 204.279 74 204" stroke="#442257" stroke-width="1.5" stroke-linecap="round" stroke-linejoin="round"/>
<path d="M123 202C137.498 202 141.443 201.943 145.741 205.316C148.889 207.785 149.734 212.848 152 216" stroke="#442257" stroke-width="1.5" stroke-linecap="round" stroke-linejoin="round"/>
<path d="M157 200C158.88 202.819 159.902 209.611 163 212" stroke="#442257" stroke-width="1.5" stroke-linecap="round" stroke-linejoin="round"/>
<path d="M161 193C164 195.243 165.433 207.497 169 210" stroke="#442257" stroke-width="1.5" stroke-linecap="round" stroke-linejoin="round"/>
<path d="M124 181C128.272 181.414 132.2 182.938 135 186" stroke="#442257" stroke-width="1.5" stroke-linecap="round" stroke-linejoin="round"/>
<path d="M86 209C87.2692 206.945 89.5756 204.324 92 204" stroke="#442257" stroke-width="1.5" stroke-linecap="round" stroke-linejoin="round"/>
<path d="M254.434 102C253.43 106.022 251.202 110.804 249.757 115.364C251.952 115.401 256.593 115.673 255.937 119.176C255.401 122.049 250.797 122.141 248.63 122.123C248.003 123.596 247 127 247 127" stroke="#442257" stroke-width="1.5" stroke-linecap="round" stroke-linejoin="round"/>
<path d="M222 131C222 131 224.319 124.357 225.183 120.798C226.135 116.874 227.643 113.123 228.991 109.309C230.182 105.877 231.309 101.567 233 98" stroke="#442257" stroke-width="1.5" stroke-linecap="round" stroke-linejoin="round"/>
<path d="M231 95C232.524 98.9452 241 98.6128 243.114 95.5636C243.421 98.8152 248.155 97.8722 250.587 97.2905C250.587 98.6237 251.934 100.181 253.018 100.903C254.183 101.695 255.586 102.077 257 101.987" stroke="#442257" stroke-width="1.5" stroke-linecap="round" stroke-linejoin="round"/>
<path d="M231 112L232 110" stroke="#442257" stroke-width="1.5" stroke-linecap="round" stroke-linejoin="round"/>
<path d="M180 171C180.883 171.473 182.161 171.99 181.983 173" stroke="#442257" stroke-width="1.5" stroke-linecap="round" stroke-linejoin="round"/>
<path d="M186 168C186.744 168.497 189.714 170.394 188.841 171" stroke="#442257" stroke-width="1.5" stroke-linecap="round" stroke-linejoin="round"/>
<path d="M241 113L242 111" stroke="#442257" stroke-width="1.5" stroke-linecap="round" stroke-linejoin="round"/>
<path d="M229 120C229 120 222.896 115.34 219.978 113.256C217.299 111.344 214.673 109.275 212.021 107.382C210.884 109.548 208.152 107.333 209.259 105.19C210.752 102.296 214.234 105.336 212.021 107.382" fill="#F15D4A"/>
<path d="M229 120C229 120 222.896 115.34 219.978 113.256C217.299 111.344 214.673 109.275 212.021 107.382C210.884 109.548 208.152 107.333 209.259 105.19C210.752 102.296 214.234 105.336 212.021 107.382" stroke="#F15D4A" stroke-width="1.5" stroke-linecap="round" stroke-linejoin="round"/>
<path d="M225 119.629C225 119.629 225.916 121.186 226.763 121.288C228.029 121.427 229.758 118.733 230.894 119.592C231.574 120.101 230.514 121.203 230.913 121.719C231.673 122.628 232.954 121.081 233.448 120.589C234.463 119.571 236.279 118.106 237.214 119.717C237.792 120.718 237.043 121.55 239 121.302" stroke="#442257" stroke-width="1.5" stroke-linecap="round" stroke-linejoin="round"/>
<path d="M210.67 100C210.216 99.2633 209.988 98.4713 210 97.6727C210.013 96.874 210.266 96.0856 210.743 95.3556C211.662 93.9227 209.786 92.4709 210.239 91" stroke="#442257" stroke-width="1.5" stroke-linecap="round" stroke-linejoin="round"/>
<path d="M213.229 101C212.806 99.8351 212.972 98.6127 213.704 97.5139C213.928 97.1073 214.027 96.6759 213.994 96.2445C213.961 95.8131 213.796 95.3902 213.51 95" stroke="#442257" stroke-width="1.5" stroke-linecap="round" stroke-linejoin="round"/>
<path d="M207.466 101C206.473 99.6118 207.304 98.2235 207.784 97.0039C208.125 96.0104 208.061 94.9692 207.6 94" stroke="#442257" stroke-width="1.5" stroke-linecap="round" stroke-linejoin="round"/>
<path d="M241 146C241.279 145.521 241.623 145.177 242 145" stroke="#442257" stroke-width="1.5" stroke-linecap="round" stroke-linejoin="round"/>
<path d="M245 140C245.381 140.076 245.727 140.225 246 140.432" stroke="#442257" stroke-width="1.5" stroke-linecap="round" stroke-linejoin="round"/>
<path d="M252 155C252.317 154.616 252.652 154.282 253 154" stroke="#442257" stroke-width="1.5" stroke-linecap="round" stroke-linejoin="round"/>
<path d="M233 154C233.604 154.405 234.277 154.741 235 155" stroke="#442257" stroke-width="1.5" stroke-linecap="round" stroke-linejoin="round"/>
<path d="M230 158C230.393 157.732 230.732 157.393 231 157" stroke="#442257" stroke-width="1.5" stroke-linecap="round" stroke-linejoin="round"/>
<path d="M207 157C207.271 157.42 207.612 157.762 208 158" stroke="#442257" stroke-width="1.5" stroke-linecap="round" stroke-linejoin="round"/>
<path d="M208 155C208.027 154.743 208.141 154.503 208.323 154.321C208.506 154.139 208.745 154.026 209 154" stroke="#442257" stroke-width="1.5" stroke-linecap="round" stroke-linejoin="round"/>
<path d="M214 150C214.305 150.141 214.644 150.24 215 150.289" stroke="#442257" stroke-width="1.5" stroke-linecap="round" stroke-linejoin="round"/>
<path d="M216 146C216.008 145.658 216.056 145.32 216.143 145" stroke="#442257" stroke-width="1.5" stroke-linecap="round" stroke-linejoin="round"/>
<path d="M213 142C213.105 141.655 213.21 141.326 213.289 141" stroke="#442257" stroke-width="1.5" stroke-linecap="round" stroke-linejoin="round"/>
<path d="M205 143C205.292 143.173 205.629 143.319 206 143.431" stroke="#442257" stroke-width="1.5" stroke-linecap="round" stroke-linejoin="round"/>
<path d="M201 150.431C201.365 150.314 201.702 150.169 202 150" stroke="#442257" stroke-width="1.5" stroke-linecap="round" stroke-linejoin="round"/>
<path d="M207 147C207.302 147.151 207.658 147.202 208 147.143" stroke="#442257" stroke-width="1.5" stroke-linecap="round" stroke-linejoin="round"/>
<path d="M260 152.267C260.675 152.257 261.346 152.168 262 152" stroke="#442257" stroke-width="1.5" stroke-linecap="round" stroke-linejoin="round"/>
<path d="M241 173C241.07 172.645 241.167 172.309 241.289 172" stroke="#442257" stroke-width="1.5" stroke-linecap="round" stroke-linejoin="round"/>
<path d="M226.428 182L226 183" stroke="#442257" stroke-width="1.5" stroke-linecap="round" stroke-linejoin="round"/>
<path d="M222 181H221" stroke="#442257" stroke-width="1.5" stroke-linecap="round" stroke-linejoin="round"/>
<path d="M216.002 168C215.987 167.784 216.076 167.571 216.256 167.391C216.435 167.212 216.696 167.075 217 167" stroke="#442257" stroke-width="1.5" stroke-linecap="round" stroke-linejoin="round"/>
<path d="M202.431 169L202 168" stroke="#442257" stroke-width="1.5" stroke-linecap="round" stroke-linejoin="round"/>
<path d="M199 180C198.73 180.374 198.393 180.711 198 181" stroke="#442257" stroke-width="1.5" stroke-linecap="round" stroke-linejoin="round"/>
<path d="M195 176C195.338 176.056 195.673 176.153 196 176.289" stroke="#442257" stroke-width="1.5" stroke-linecap="round" stroke-linejoin="round"/>
<path d="M188 159C187.601 158.74 187.261 158.399 187 158" stroke="#442257" stroke-width="1.5" stroke-linecap="round" stroke-linejoin="round"/>
<path d="M195 159.289C195.178 159.316 195.359 159.305 195.531 159.255C195.704 159.205 195.864 159.118 196 159" stroke="#442257" stroke-width="1.5" stroke-linecap="round" stroke-linejoin="round"/>
<path d="M196.289 154C196.151 153.685 196.054 153.348 196 153" stroke="#442257" stroke-width="1.5" stroke-linecap="round" stroke-linejoin="round"/>
<path d="M87.283 202.733C84.5957 197.338 82.6369 192.055 81.5763 185.752C80.9573 182.085 78.4059 170.97 81.5008 168.141C89.1249 161.178 94.9335 188.162 95.6959 193.008C96.0922 195.511 96.3262 200.916 94.9222 203" stroke="#442257" stroke-width="1.5" stroke-linecap="round" stroke-linejoin="round"/>
<path d="M68.1878 204C65.4703 198.873 63.5701 193.355 62.5557 187.644C61.9448 184.195 59.4268 173.735 62.4812 171.073C70.0018 164.524 75.7345 189.904 76.4907 194.469C76.8632 196.826 77.6081 202.104 76.0586 203.967" stroke="#442257" stroke-width="1.5" stroke-linecap="round" stroke-linejoin="round"/>
<path d="M81 181C79.9704 177.952 76.4457 174.235 73.3837 172.317C70.3218 170.399 65.9834 169.857 65 170.03" stroke="#442257" stroke-width="1.5" stroke-linecap="round" stroke-linejoin="round"/>
<path d="M77 195C78.6801 194.065 81.1765 192.455 82 191" stroke="#442257" stroke-width="1.5" stroke-linecap="round" stroke-linejoin="round"/>
<path d="M84 167C90.0949 168.414 95.6115 175.729 98.3497 181.152C99.382 183.194 98.9903 185.453 98.5071 187.042C98.0239 188.632 96.1057 192.297 95.3113 193" stroke="#442257" stroke-width="1.5" stroke-linecap="round" stroke-linejoin="round"/>
</g>
<defs>
<clipPath id="clip0">
<rect width="375" height="300" fill="white"/>
</clipPath>
</defs>
</svg>
