<svg width="81" height="81" viewBox="0 0 81 81" fill="none" xmlns="http://www.w3.org/2000/svg">
<circle cx="40.5" cy="40.5" r="40.5" fill="#006AFF" fill-opacity="0.25"/>
<path d="M40.5 28C47.4 28 53 33.6 53 40.5C53 47.4125 47.4 53 40.5 53C33.5875 53 28 47.4125 28 40.5C28 33.6 33.5875 28 40.5 28ZM45.3125 36.3875C45.45 35.95 45.05 35.5375 44.6125 35.675L38.2125 37.675C37.95 37.7625 37.7375 37.9625 37.6625 38.225L35.6625 44.6375C35.525 45.0625 35.9375 45.475 36.3625 45.3375L42.7375 43.3375C43 43.2625 43.2125 43.05 43.2875 42.7875L45.3125 36.3875Z" fill="#006AFF"/>
</svg>
